<?xml version="1.0" encoding="UTF-8" standalone="no"?>
<!-- Created with Inkscape (http://www.inkscape.org/) -->

<svg
   version="1.1"
   id="svg503"
   width="64"
   height="32.027199"
   viewBox="0 0 64.000004 32.027198"
   sodipodi:docname="777-solutions.svg"
   inkscape:version="1.2.2 (b0a8486541, 2022-12-01)"
   xmlns:inkscape="http://www.inkscape.org/namespaces/inkscape"
   xmlns:sodipodi="http://sodipodi.sourceforge.net/DTD/sodipodi-0.dtd"
   xmlns="http://www.w3.org/2000/svg"
   xmlns:svg="http://www.w3.org/2000/svg">
  <defs
     id="defs507">
    <clipPath
       clipPathUnits="userSpaceOnUse"
       id="clipPath521">
      <path
         d="M 0,144 H 216 V 0 H 0 Z"
         id="path519" />
    </clipPath>
  </defs>
  <sodipodi:namedview
     id="namedview505"
     pagecolor="#505050"
     bordercolor="#eeeeee"
     borderopacity="1"
     inkscape:showpageshadow="0"
     inkscape:pageopacity="0"
     inkscape:pagecheckerboard="0"
     inkscape:deskcolor="#505050"
     showgrid="false"
     inkscape:zoom="0.50000003"
     inkscape:cx="443.99997"
     inkscape:cy="97.999994"
     inkscape:window-width="2560"
     inkscape:window-height="1361"
     inkscape:window-x="0"
     inkscape:window-y="0"
     inkscape:window-maximized="1"
     inkscape:current-layer="layer8">
    <inkscape:page
       x="0"
       y="0"
       id="page509"
       width="64.000008"
       height="32.027199"
       inkscape:export-filename="../../../Pictures/777solutions-white.png"
       inkscape:export-xdpi="300"
       inkscape:export-ydpi="300" />
  </sodipodi:namedview>
  <g
     inkscape:groupmode="layer"
     id="layer8"
     inkscape:label="w"
     transform="matrix(5.5849335,0,0,5.5849335,1.2677803e-8,-4.391801e-5)">
    <g
       id="g511"
       inkscape:groupmode="layer"
       inkscape:label="777"
       transform="matrix(1.3333333,0,0,-1.3333333,-0.75746665,164.62424)">
      <g
         id="g555"
         transform="matrix(0.04,0,0,0.04,8.259992,120.92138)"
         inkscape:label="r">
        <path
           d="m 0,0 0.018,0.004 26.136,7.282 -1.305,3.615 -0.599,1.638 -1.451,-0.945 c -0.019,-0.012 -2.013,-1.248 -5.652,-1.188 -3.513,0.057 -9.3,1.343 -16.918,7.142 -0.19,0.149 -0.46,0.312 -0.988,0.624 -0.516,0.305 -1.339,0.765 -2.327,1.225 -2.589,1.207 -4.963,1.815 -7.057,1.81 -3.338,-0.01 -5.864,-1.614 -7.335,-4.639 -0.713,0.161 -8.282,1.868 -9.037,2.038 0.216,0.911 3.832,16.198 4.554,19.25 0.063,0.269 0.3,0.444 0.53,0.391 l 6.373,-1.472 c -0.183,-0.874 -1.422,-6.797 -1.422,-6.797 l 2.438,1.03 c 0.167,0.07 16.836,6.943 28.445,-0.934 0.207,-0.148 5.146,-3.647 11.739,-6.405 8.421,-3.523 15.575,-4.241 21.289,-2.164 0.221,-0.459 4.397,-9.128 4.9,-10.171 C 48.869,10.344 41.316,7.721 33.858,2.093 28.077,-2.269 23.602,-7.53 20.557,-13.542 c -0.272,-0.538 -0.152141,-0.329714 -0.402141,-0.882714 0.833,-0.345 2.700437,-0.835121 2.700437,-0.835121 0,0 -0.0093,0.02484 0.153704,0.360835 2.741,5.647 7.002,10.522 12.405,14.616 9.29,7.04 19.119,9.232 19.217,9.253 l 1.793,0.389 -0.806,1.676 -6.808,14.131 -1.219,-0.553 C 35.12,18.96 16.197,32.323 16.007,32.459 l -0.027,0.019 c -5.351,3.632 -12.43,4.985 -20.471,3.913 -3.401,-0.453 -6.283,-1.24 -8.179,-1.852 0.316,1.51 0.928,4.433 0.928,4.433 l -12.163,2.809 -6.001,-25.37 14.125,-3.184 0.427,1.199 c 0.679,1.902 1.73,3.077 3.214,3.591 3.558,1.235 8.944,-1.618 10.729,-2.827 C 4.923,10.379 10.919,7.816 16.428,7.551 9.173,5.53 -0.66,2.79 -0.66,2.79 l 0.036,0.01 c -6.291,-1.572 -11.153,-4.871 -15.385,-11.19 1.058,-0.105 2.181,-0.199 3.239,-0.313 C -9.104,-3.686 -5.247,-1.311 0,0"
           style="fill:#000000;fill-opacity:1;fill-rule:nonzero;stroke:none"
           id="path549"
           sodipodi:nodetypes="cccccccccccccccccccccccccccccccccccccccccccccccccc"
           transform="translate(-33.857501,-2.0924998)" />
        <path
           d="m 0,0 c 7.459,5.628 15.012,8.251 18.473,9.241 -0.502,1.044 -4.678,9.712 -4.899,10.172 -5.714,-2.077 -12.869,-1.359 -21.289,2.163 -6.594,2.759 -11.533,6.258 -11.739,6.405 -11.609,7.878 -28.278,1.005 -28.445,0.934 -10e-4,0.001 -2.438,-1.029 -2.438,-1.029 0,0 1.239,5.923 1.422,6.797 l -6.373,1.471 c -0.23,0.053 -0.467,-0.121 -0.531,-0.39 -0.722,-3.053 -4.338,-18.34 -4.553,-19.251 0.754,-0.17 8.323,-1.877 9.036,-2.037 1.472,3.024 3.997,4.629 7.336,4.638 2.093,0.006 4.467,-0.603 7.057,-1.81 0.987,-0.46 1.81,-0.92 2.326,-1.225 0.529,-0.312 0.798,-0.475 0.988,-0.624 7.618,-5.798 13.406,-7.085 16.918,-7.142 3.64,-0.059 5.633,1.176 5.653,1.189 l 1.45,0.944 0.6,-1.637 1.305,-3.616 -26.137,-7.281 -0.018,-0.005 c -5.247,-1.311 -9.835723,-3.6097816 -13.502723,-8.625782 11.974927,-2.087182 24.83508,-4.123164 34.44502,-5.88639 0.25,0.552 0.748952,1.252485 1.021953,1.790485 C -8.84875,-8.8016875 -5.78,-4.362 0,0"
           style="fill:#000000;fill-opacity:1;fill-rule:nonzero;stroke:none"
           id="path553"
           sodipodi:nodetypes="cccccccccccccsccccccccccccc"
           transform="translate(-2.6908651e-6)" />
        <path
           style="color:#000000;fill:#ffffff;fill-opacity:1;stroke-miterlimit:10;-inkscape-stroke:none"
           d="m -47.752829,-10.671143 c 3.765018,5.1500775 8.215135,8.0814459 13.67861,9.4465336 l -0.02344,-0.00586 0.01758,0.00586 L -8.8730469,5.796875 -9.8496094,8.5019531 -10.0625,9.0820313 -10.570313,8.75 c -0.06776,-0.044044 -0.03651,-0.022987 -0.06055,-0.037109 -0.02404,-0.014123 -0.05632,-0.031098 -0.0957,-0.052734 -0.07876,-0.043274 -0.187958,-0.1016255 -0.328125,-0.1679688 -0.280333,-0.1326866 -0.682031,-0.3002613 -1.201171,-0.4648437 -1.038282,-0.3291649 -2.544809,-0.6405598 -4.46875,-0.6093751 -3.714836,0.060292 -9.706077,1.4324607 -17.447266,7.3242196 l -0.0059,0.0039 -0.0039,0.0039 c -0.116544,0.0914 -0.364761,0.246491 -0.890625,0.556641 v 0.002 c -0.496455,0.293447 -1.297446,0.739648 -2.25,1.183593 -2.504581,1.167194 -4.758529,1.732059 -6.675781,1.726563 -3.05309,-0.0082 -5.183079,-1.361141 -6.533203,-4.134766 l -0.308594,-0.636718 -0.691406,0.154297 c -0.719604,0.161481 -8.28345,1.867186 -9.037109,2.037109 l -0.882813,0.199219 0.207031,0.880859 c 0.21617,0.915956 3.830769,16.1991 4.552735,19.251953 0.159147,0.668916 0.826073,1.23624 1.605469,1.056641 L -47.857422,35.359375 -48.037109,34.5 c -0.13781,-0.658175 -0.71717,-3.425558 -1.072266,-5.123047 0.166904,0.07047 0.349182,0.147752 0.480469,0.203125 0.114441,0.04827 0.210066,0.08889 0.277344,0.117188 0.03364,0.01415 0.06108,0.02526 0.08008,0.0332 0.0088,0.0037 0.01507,0.0071 0.02148,0.0098 1.94e-4,8.3e-5 0.0018,-8.2e-5 0.002,0 0.0034,0.0014 0.0062,0.0017 0.01172,0.0039 0.09825,0.04165 0.325625,0.134852 0.826172,0.316406 0.508562,0.184461 1.233107,0.434093 2.134765,0.705078 1.803317,0.541971 4.310781,1.171563 7.191407,1.550781 5.761251,0.758436 13.06326,0.525118 19.132812,-3.59375 l 0.0098,-0.0059 0.0078,-0.0059 C -18.7673,28.592264 -13.861193,25.11866 -7.3690726,22.402288 0.92413788,18.93335 7.8415977,18.283553 13.267578,20.255859 l 0.763672,0.277344 0.349609,-0.732422 c 0.215704,-0.448976 4.39677,-9.124503 4.900391,-10.1718747 L 19.740234,8.671875 18.71875,8.3789063 C 15.328695,7.4091996 7.8727555,4.818609 0.5390625,-0.71484375 -5.1419741,-5.0021589 -9.5197027,-10.153832 -12.5,-16.039062 v -0.002 h -0.002 c -0.259368,-0.511135 -0.04347,-0.220196 -0.294921,-0.77539 -1.667871,0.808862 -20.398185,3.725245 -34.955908,6.145309 z m 33.170798,-5.588623 c 0,0 0.306771,0.683143 0.482422,1.029297 3.109696,6.1407575 7.6815946,11.5086366 13.5605465,15.94531275 C 6.5703599,6.0790788 13.463372,8.5891186 17.242187,9.734375 16.324297,11.641042 13.662874,17.163884 13.074219,18.386719 7.2141143,16.537925 0.12403239,17.326474 -8.0605469,20.75 c -6.6790371,2.794581 -11.6276501,6.298522 -11.8964841,6.490234 -5.539436,3.759125 -12.375341,4.027094 -17.892578,3.300782 -2.758619,-0.363157 -5.176336,-0.971691 -6.908203,-1.492188 -0.865934,-0.260248 -1.560681,-0.497652 -2.041016,-0.671875 -0.480336,-0.174222 -0.803636,-0.309913 -0.75,-0.287109 l -0.01563,-0.0059 c -0.0016,-6.63e-4 -0.0054,-0.004 -0.0098,-0.0059 l -0.0059,-0.002 c -0.01682,-0.007 -0.04308,-0.01733 -0.07617,-0.03125 l -0.449219,-0.191406 -0.002,0.002 c -0.203077,-0.08569 -0.421403,-0.177633 -0.662109,-0.279297 -0.609238,-0.257317 -1.21875,-0.515625 -1.21875,-0.515625 l -1.576172,-0.666016 0.349609,1.675781 c 0,0 0.882985,4.211559 1.244141,5.9375 l -5.066406,1.169922 c -0.779429,-3.295716 -3.775355,-15.96536 -4.253907,-17.990234 1.637757,-0.369317 6.256451,-1.410919 7.554688,-1.703125 1.652602,2.854783 4.365708,4.516311 7.734375,4.525391 2.268744,0.0065 4.762087,-0.647727 7.4375,-1.894532 1.020453,-0.475591 1.866717,-0.947123 2.402344,-1.263672 l 0.002,-0.002 c 0.52488,-0.309567 0.813331,-0.478142 1.074219,-0.68164 l 0.0098,-0.0078 c 7.489213,-5.696972 13.071383,-6.8974903 16.378906,-6.9511716 1.716056,-0.027815 3.027175,0.2485561 3.900391,0.5253906 0.436608,0.1384173 0.763834,0.276265 0.976562,0.376953 0.106365,0.05034 0.184147,0.09262 0.232422,0.119141 0.01996,0.01097 0.03128,0.01583 0.04102,0.02148 l 0.0078,0.0059 2.3847661,1.552734 0.9882813,-2.6953126 1.6328125,-4.5253907 -27.0664059,-7.5410156 -0.0293,-0.00781 -0.01172,-0.00391 c -4.577394,-1.1436943 -8.509257,-3.8500616 -11.875,-7.9921871"
           id="path1251"
           sodipodi:nodetypes="ccccccccsssscccccccccccccccccccssssscssscccccccccccccccccccccccssscccccccsccccccccsccccssssccccccccc" />
      </g>
      <g
         id="g543"
         transform="matrix(0.04,0,0,0.04,3.136688,120.62012)"
         inkscape:label="l">
        <path
           d="m 0,0 c 0.987,0.307 2.032,0.568 3.051,0.858 1.203,5.61 3.526,9.095 7.422,12.368 l 0.014,0.012 20.299,18.002 -2.758,2.677 -1.257,1.209 -0.889,-1.485 C 25.869,33.622 24.62,31.637 21.322,30.095 18.14,28.607 12.375,27.226 2.986,29.098 c -0.236,0.05 -0.55,0.079 -1.162,0.128 -0.598,0.047 -1.539,0.1 -2.628,0.081 -2.856,-0.051 -5.257,-0.544 -7.136,-1.467 -2.996,-1.472 -4.563,-4.021 -4.56,-7.385 -0.711,-0.168 -8.262,-1.952 -9.015,-2.13 -0.206,0.913 -3.657,16.238 -4.346,19.298 -0.061,0.27 0.076,0.531 0.305,0.584 l 6.373,1.471 c 0.219,-0.865 1.702,-6.732 1.702,-6.732 0,0 1.74,1.994 1.74,1.994 0.119,0.137 12.088,13.621 25.975,11.63 0.251,-0.042 6.224,-1.022 13.359,-0.611 9.113,0.526 15.858,3.017 20.083,7.388 0.4,-0.316 7.954,-6.276 8.863,-6.994 -2.678,-2.408 -8.316,-8.076 -12.553,-16.404 -3.283,-6.455 -4.999,-13.144 -5.1,-19.883 -0.021,-1.359 -0.02,-1.847 0.093,-3.218 0.925,0.11 1.855,0.202 2.783,0.303 -0.096,1.214 -0.094,1.56 -0.078,2.771 0.085,6.276 1.68,12.526 4.742,18.574 5.264,10.4 13.137,16.679 13.216,16.741 l 1.441,1.136 -1.459,1.152 -12.313,9.717 -0.854,-1.031 C 33.726,45.663 10.861,49.378 10.631,49.417 l -0.033,0.005 c -6.402,0.919 -13.357,-0.968 -20.115,-5.457 -2.858,-1.898 -5.103,-3.869 -6.539,-5.25 -0.378,1.495 -1.11,4.391 -1.11,4.391 l -12.163,-2.808 5.728,-25.432 14.091,3.33 -0.141,1.265 c -0.224,2.007 0.205,3.524 1.314,4.637 2.657,2.669 8.748,2.466 10.883,2.162 7.802,-1.547 14.314,-1.223 19.382,0.955 C 16.293,22.217 8.656,15.444 8.656,15.444 l 0.028,0.025 C 4.003,11.536 1.194,6.944 0,0"
           style="fill:#000000;fill-opacity:1;fill-rule:nonzero;stroke:none"
           id="path525"
           transform="translate(-34.8857,-10.065996)" />
        <path
           d="m 0,0 -0.854,-1.031 c -5.106,-6.17 -15.049,-7.46 -22.47,-7.46 -5.266,0 -9.26,0.65 -9.356,0.666 l -0.033,0.005 c -1.055,0.151 -2.124,0.226 -3.205,0.226 -5.483,0 -11.265,-1.934 -16.909,-5.683 -2.858,-1.898 -5.104,-3.869 -6.54,-5.25 -0.377,1.495 -1.109,4.391 -1.109,4.391 l -12.163,-2.808 5.727,-25.432 14.092,3.33 -0.142,1.265 c -0.224,2.007 0.206,3.524 1.314,4.637 1.868,1.876 5.435,2.333 8.13,2.333 1.137,0 2.119,-0.081 2.753,-0.171 3.231,-0.641 6.241,-0.961 9.019,-0.961 3.93,0 7.394,0.64 10.363,1.916 -5.498,-4.876 -12.902,-11.442 -13.258,-11.759 0.005,0.004 0.009,0.009 0.014,0.013 l -0.028,-0.025 c 0,0 0.005,0.004 0.014,0.012 -4.672,-3.929 -7.477,-8.519 -8.67,-15.456 0.987,0.307 2.032,0.568 3.052,0.858 1.202,5.61 3.525,9.095 7.421,12.368 l 0.014,0.012 20.299,18.002 -2.757,2.677 -1.257,1.209 -0.89,-1.485 c -0.012,-0.019 -1.262,-2.004 -4.559,-3.546 -2.083,-0.974 -5.273,-1.902 -9.861,-1.902 -2.422,0 -5.232,0.258 -8.475,0.905 -0.237,0.05 -0.551,0.079 -1.163,0.128 -0.51,0.041 -1.273,0.085 -2.164,0.085 -0.151,0 -0.305,-10e-4 -0.463,-0.004 -2.857,-0.051 -5.258,-0.544 -7.137,-1.467 -2.996,-1.472 -4.563,-4.021 -4.559,-7.385 -0.711,-0.168 -8.263,-1.952 -9.016,-2.13 -0.205,0.913 -3.657,16.238 -4.346,19.298 -0.061,0.27 0.076,0.531 0.306,0.584 l 6.373,1.471 c 0.219,-0.865 1.701,-6.732 1.701,-6.732 0,0 1.74,1.994 1.74,1.994 0.111,0.127 10.5,11.83 23.143,11.83 0.934,0 1.877,-0.063 2.833,-0.2 0.207,-0.035 4.33,-0.711 9.787,-0.711 1.14,0 2.338,0.029 3.571,0.1 9.113,0.526 15.858,3.017 20.083,7.388 0.4,-0.316 7.954,-6.276 8.863,-6.994 -2.677,-2.408 -8.316,-8.076 -12.552,-16.404 -3.284,-6.455 -5,-13.144 -5.101,-19.883 -0.02,-1.359 -0.02,-1.847 0.093,-3.218 0.925,0.11 1.855,0.202 2.784,0.303 -0.097,1.214 -0.095,1.56 -0.078,2.771 0.085,6.276 1.68,12.526 4.741,18.574 5.265,10.4 13.138,16.679 13.217,16.741 l 1.44,1.136 -1.459,1.152 z m 0.147,-1.39 11.546,-9.112 0.465,-0.367 -0.445,-0.351 c -0.081,-0.063 -8.129,-6.484 -13.49,-17.074 -3.131,-6.186 -4.762,-12.582 -4.849,-19.013 -0.012,-0.853 -0.016,-1.3 0.015,-1.892 -0.266,-0.028 -0.532,-0.056 -0.797,-0.085 -0.036,0.668 -0.031,1.166 -0.017,2.093 0.099,6.585 1.778,13.127 4.992,19.444 4.1,8.06 9.485,13.556 12.33,16.115 l 0.882,0.793 -0.931,0.735 -1.933,1.525 -6.93,5.469 -0.71,0.561 -0.629,-0.651 c -4.051,-4.192 -10.585,-6.575 -19.421,-7.085 -1.139,-0.065 -2.321,-0.098 -3.514,-0.098 -5.39,0 -9.452,0.669 -9.645,0.701 -0.976,0.139 -1.976,0.21 -2.975,0.21 -13.113,0 -23.79,-12.051 -23.896,-12.172 l 0.025,-0.022 c -0.131,-0.13 -0.295,-0.305 -0.508,-0.542 l -1.236,4.889 -0.24,0.95 -0.954,-0.22 -6.373,-1.472 c -0.764,-0.176 -1.237,-0.973 -1.056,-1.777 l 4.346,-19.299 0.222,-0.986 0.983,0.233 4.341,1.025 4.675,1.105 0.771,0.182 -0.001,0.792 c -0.003,2.998 1.342,5.181 4,6.486 1.746,0.858 4.005,1.317 6.713,1.365 0.152,0.003 0.301,0.004 0.446,0.004 0.875,0 1.616,-0.045 2.085,-0.082 0.504,-0.04 0.848,-0.07 1.046,-0.112 3.076,-0.613 5.994,-0.924 8.671,-0.924 3.992,0 7.452,0.671 10.284,1.996 3.543,1.657 4.927,3.831 4.994,3.938 l 0.244,0.408 0.348,-0.335 1.985,-1.927 -19.487,-17.282 c -4.164,-3.497 -6.401,-7.102 -7.623,-12.331 -0.181,-0.049 -0.362,-0.098 -0.543,-0.147 -0.122,-0.034 -0.245,-0.067 -0.369,-0.101 1.232,5.6 3.686,9.635 8.018,13.279 l -0.532,0.633 0.253,-0.278 0.299,-0.338 0.004,0.004 10e-4,-10e-4 -10e-4,10e-4 13.255,11.754 4.641,4.116 -5.699,-2.449 c -2.833,-1.217 -6.187,-1.834 -9.969,-1.834 -2.706,0 -5.675,0.317 -8.824,0.942 l -0.027,0.005 -0.027,0.004 c -0.81,0.115 -1.865,0.181 -2.894,0.181 -2.324,0 -6.562,-0.341 -8.839,-2.628 -1.317,-1.323 -1.855,-3.158 -1.599,-5.453 l 0.043,-0.385 -12.245,-2.893 -5.287,23.476 10.239,2.364 0.87,-3.442 0.421,-1.669 1.241,1.194 c 1.361,1.308 3.575,3.261 6.4,5.137 5.433,3.609 11.088,5.516 16.356,5.516 1.032,0 2.062,-0.072 3.072,-0.217 0.04,-0.007 4.092,-0.68 9.522,-0.68 7.649,0 17.89,1.357 23.24,7.822 z"
           style="fill:#000000;fill-opacity:1;fill-rule:nonzero;stroke:none"
           id="path529"
           transform="translate(8.4249003,47.176)" />
        <path
           d="m 0,0 c 0.987,0.307 2.032,0.568 3.051,0.858 1.203,5.61 3.526,9.095 7.422,12.368 l 0.014,0.012 20.299,18.002 -2.758,2.677 -1.257,1.209 -0.889,-1.485 C 25.869,33.622 24.62,31.637 21.322,30.095 18.14,28.607 12.375,27.226 2.986,29.098 c -0.236,0.05 -0.55,0.079 -1.162,0.128 -0.598,0.047 -1.539,0.1 -2.628,0.081 -2.856,-0.051 -5.257,-0.544 -7.136,-1.467 -2.996,-1.472 -4.563,-4.021 -4.56,-7.385 -0.711,-0.168 -8.262,-1.952 -9.015,-2.13 -0.206,0.913 -3.657,16.238 -4.346,19.298 -0.061,0.27 0.076,0.531 0.305,0.584 l 6.373,1.471 c 0.219,-0.865 1.702,-6.732 1.702,-6.732 0,0 1.74,1.994 1.74,1.994 0.119,0.137 12.088,13.621 25.975,11.63 0.251,-0.042 6.224,-1.022 13.359,-0.611 9.113,0.526 15.858,3.017 20.083,7.388 0.4,-0.316 7.954,-6.276 8.863,-6.994 -2.678,-2.408 -8.316,-8.076 -12.553,-16.404 -3.283,-6.455 -4.999,-13.144 -5.1,-19.883 -0.021,-1.359 -0.02,-1.847 0.093,-3.218 0.925,0.11 1.855,0.202 2.783,0.303 -0.096,1.214 -0.094,1.56 -0.078,2.771 0.085,6.276 1.68,12.526 4.742,18.574 5.264,10.4 13.137,16.679 13.216,16.741 l 1.441,1.136 -1.459,1.152 -12.313,9.717 -0.854,-1.031 C 33.726,45.663 10.861,49.378 10.631,49.417 l -0.033,0.005 c -6.402,0.919 -13.357,-0.968 -20.115,-5.457 -2.858,-1.898 -5.103,-3.869 -6.539,-5.25 -0.378,1.495 -1.11,4.391 -1.11,4.391 l -12.163,-2.808 5.728,-25.432 14.091,3.33 -0.141,1.265 c -0.224,2.007 0.205,3.524 1.314,4.637 2.657,2.669 8.748,2.466 10.883,2.162 7.802,-1.547 14.314,-1.223 19.382,0.955 C 16.293,22.217 8.656,15.444 8.656,15.444 l 0.028,0.025 C 4.003,11.536 1.194,6.944 0,0"
           style="fill:#000000;fill-opacity:1;fill-rule:nonzero;stroke:none"
           id="path537"
           transform="translate(-34.8857,-10.065996)" />
        <path
           id="path1913"
           style="fill:#000000;fill-opacity:1;fill-rule:nonzero;stroke:none"
           d="M 8.790444,43.280766 C 4.5654526,38.909774 -2.1795828,36.419558 -11.292564,35.893558 -18.42755,35.48256 -24.400475,36.462398 -24.650475,36.504398 -38.538447,38.495394 -50.50755,25.010539 -50.62655,24.873539 l -1.740234,-1.993653 c 0,0 -1.482684,5.867424 -1.700684,6.732422 l -6.373535,-1.470703 c -0.23,-0.053 -0.367152,-0.314473 -0.306152,-0.584473 0.688998,-3.059992 4.141191,-18.3848534 4.346191,-19.2978516 0.752998,0.1779996 8.304114,1.9618826 9.016114,2.1298826 -0.004,3.363994 1.5626,5.91228 4.558594,7.384278 1.878996,0.922998 4.280724,1.416773 7.136718,1.467773 1.089998,0.019 2.030932,-0.03357 2.62793,-0.08057 0.612,-0.049 0.925623,-0.07891 1.161621,-0.128906 9.388982,-1.871998 15.154921,-0.490438 18.336915,0.997558 3.296994,1.541998 4.5465937,3.527387 4.5585937,3.546387 l 0.890625,1.483887 1.2553712,-1.208496 2.7583008,-2.677735 -20.2983407,-18.0014651 -0.01465,-0.011719 c -3.648159,-3.06479036 -6.115413,-7.1895088 -7.401856,-12.3076175 l 0.70166,0.1977539 2.358399,0.6181641 c 0.781627,0.1987298 1.593404,0.3974616 2.428711,0.5961914 0.835307,0.1987298 1.69415,0.3974616 2.569336,0.5961914 0.970162,0.2115133 1.946824,0.4246935 3.004395,0.6445313 0.528785,0.1099189 1.077119,0.2208285 1.655273,0.3354492 0.578154,0.1146207 1.186651,0.2319578 1.83252,0.3530274 1.14991,0.2149953 2.273796,0.4165263 3.376465,0.6049805 1.102668,0.1884542 2.183054,0.3644339 3.249023,0.5317383 1.065969,0.1673044 2.1169272,0.3259932 3.1567384,0.477539 1.0398112,0.1515459 2.0695546,0.2953449 3.0937501,0.4365235 l 3.3164063,0.421875 1.17626957,0.1259766 C 0.03280758,-2.1350244 -0.01574301,-1.0635704 -8.3536682e-5,4.9115043e-4 0.10091626,6.7394777 1.8175091,13.427828 5.1005025,19.882816 9.3374941,28.2108 14.975755,33.879607 17.652749,36.287601 c -0.908998,0.718 -8.4623058,6.677165 -8.862305,6.993165 z" />
        <path
           style="color:#000000;fill:#ffffff;fill-opacity:1;stroke-miterlimit:10;-inkscape-stroke:none"
           d="m -31.288014,-9.1006582 -1.43997,-0.3619014 c 1.320209,5.2997524 3.923922,10.10429486 7.73775,13.3082627 l 0.002,0.00195 19.5703123,17.3554689 -2.0625,2.003906 -0.4433594,0.425781 -0.3164063,-0.527343 -0.00586,-0.0098 c 0.016097,0.02549 -0.3986921,-0.620036 -1.1875,-1.371094 -0.7888086,-0.751058 -2.0072176,-1.692717 -3.7500006,-2.507812 -3.365533,-1.573826 -9.35174,-2.966727 -18.892578,-1.064453 l -0.0039,0.002 -0.0059,0.002 c -0.147074,0.03116 -0.438608,0.06263 -1.046875,0.111328 -0.576099,0.04536 -1.489034,0.09646 -2.541016,0.07813 -2.761895,-0.04932 -5.036601,-0.529509 -6.757813,-1.375 -2.73954,-1.345996 -4.060309,-3.494869 -4.05664,-6.580078 V 9.6796875 L -47.179687,9.5175781 C -47.889906,9.3499982 -55.44302,7.5645516 -56.195312,7.3867187 L -57.076172,7.1777344 -57.275391,8.0625 c -0.203498,0.9063099 -3.656648,16.236632 -4.345703,19.296875 -0.151901,0.67235 0.197156,1.474244 0.978516,1.654297 l 7.228516,1.667969 0.214843,-0.851563 c 0.163761,-0.649784 0.856113,-3.390231 1.28125,-5.072266 l 0.615235,0.705079 c 0.06737,0.07755 0.237648,0.266203 0.613281,0.654296 0.376231,0.388712 0.919713,0.931518 1.611328,1.570313 1.38323,1.277589 3.358382,2.943294 5.78125,4.546875 4.845736,3.207162 11.512397,6.197201 18.773438,5.15625 l 0.0098,-0.002 0.01172,-0.002 c 0.196226,-0.03297 6.133517,-1.004256 13.158203,-0.59961 8.9759074,0.518087 15.4782052,2.966518 19.4902344,7.117188 l 0.5625,0.582031 0.6367187,-0.501953 C 9.7402072,43.672651 17.297881,37.70983 18.20902,36.99014 L 19.043005,36.331937 18.251989,35.621 C 15.629578,33.262229 10.064241,27.664623 5.8984375,19.476562 2.6716378,13.132062 0.99533844,6.5821454 0.89648438,-0.01367188 0.88121689,-1.0510975 0.91610529,-2.0993953 0.98632813,-3.15625 l -1.78710938,-0.1660156 c -0.072715,1.0943615 -0.11184548,2.2390642 -0.0957031,3.33593748 C -0.79333884,6.8958277 0.96159413,13.723587 4.3007812,20.289062 8.3387318,28.225823 13.43352,33.504578 16.328125,36.191406 14.66378,37.505128 9.8486517,41.304314 8.7890625,42.140625 4.3327399,37.910566 -2.3839592,35.509341 -11.242188,34.998047 c -7.245285,-0.417353 -13.252867,0.572013 -13.55664,0.623047 l 0.02148,-0.0039 c -6.626931,0.950045 -12.890742,-1.805621 -17.53125,-4.876953 -2.320254,-1.535665 -4.226261,-3.14217 -5.554687,-4.36914 -0.664213,-0.613486 -1.183712,-1.132861 -1.539063,-1.5 -0.355351,-0.367139 -0.586232,-0.627046 -0.548828,-0.583985 v -0.002 l -2.865234,-3.283203 -0.419922,1.658203 c 0,0 -1.054427,4.170477 -1.486328,5.88086 l -5.064453,-1.167969 c 0.743439,-3.30156 3.601431,-15.992484 4.060547,-18.0332032 1.631446,0.3855094 6.235062,1.4733252 7.539062,1.7812502 0.232709,3.291332 1.944125,5.971926 4.966797,7.457031 2.036781,1.000505 4.565532,1.505913 7.515625,1.558594 1.128014,0.01966 2.094993,-0.03534 2.712891,-0.08398 h 0.002 c 0.610969,-0.04892 0.943032,-0.07492 1.265625,-0.142578 l 0.0098,-0.002 c 9.230583,-1.838466 14.774211,-0.469976 17.771485,0.931641 1.554211,0.726901 2.609996,1.549949 3.273437,2.18164 0.66078,0.629157 0.8748043,0.980553 0.904297,1.027344 1.188e-4,1.89e-4 0.00379,0.0037 0.00391,0.0039 l 1.4570313,2.433594 2.0703125,-1.990234 3.4511719,-3.351563 -21.0273437,-18.6484372 -0.02344,-0.019531 -0.002,-0.00195 c -3.511767,-2.95020874 -5.719242,-6.4242542 -6.963179,-11.4178259 z"
           id="path545"
           sodipodi:nodetypes="cccccccccscccccccccccccccccccssscccccccccccccccccccccssscccccccccccccccssccccccccc" />
      </g>
      <g
         id="g567"
         transform="matrix(0.04,0,0,0.04,6.190144,122.01989)"
         inkscape:label="m">
        <path
           d="m 0,0 0.022,0.011 31.771,17.299 -2.779,4.306 -1.271,1.947 -1.601,-1.662 c -0.022,-0.022 -2.241,-2.225 -6.987,-3.24 -4.58,-0.978 -12.485,-1.043 -24.121,4.205 -0.291,0.136 -0.691,0.268 -1.471,0.515 -0.762,0.241 -1.969,0.592 -3.39,0.893 -3.725,0.791 -6.993,0.87 -9.711,0.234 -4.334,-1.013 -7.134,-3.855 -8.138,-8.226 -0.975,-0.005 -11.32,-0.058 -12.351,-0.063 0.007,1.349 0.138,25.714 0.145,27.042 h 9.289 c 0.025,-1.19 0.192,-9.258 0.192,-9.258 0,0 2.858,2.07 2.858,2.07 0.196,0.141 19.79,14.07 37.234,7.318 0.314,-0.13 7.779,-3.195 17.172,-4.8 C 38.86,36.54 48.37,37.753 55.17,42.165 55.595,41.635 63.621,31.625 64.587,30.421 60.386,28.096 51.36,22.423 43.359,12.874 37.157,5.473 32.921,-2.703 30.769,-11.427 c -1.053,-4.265 -1.571,-7.57 -1.619,-12.092 1.232,-0.072 2.467,-0.274 3.713,-0.358 0.029,4.267 0.512,7.4 1.498,11.423 1.993,8.128 5.94,15.769 11.732,22.709 9.958,11.932 22.07,17.727 22.191,17.785 l 2.212,1.043 -1.55,1.935 -13.082,16.317 -1.419,-1.084 C 39.939,35.166 11.348,46.851 11.06,46.97 l -0.041,0.017 c -8.041,3.114 -17.643,2.749 -27.769,-1.056 -4.282,-1.609 -7.79,-3.496 -10.07,-4.859 -0.042,2.055 -0.124,6.037 -0.124,6.037 h -16.644 l -0.187,-34.758 19.305,0.099 0.196,1.687 c 0.311,2.674 1.324,4.515 3.098,5.629 4.252,2.671 12.105,0.58 14.787,-0.455 9.672,-4.35 18.23,-5.882 25.467,-4.573 C 10.259,9.936 -1.695,3.427 -1.695,3.427 l 0.044,0.023 c -9.76,-4.98 -16.255,-13.813 -19.285,-27.49 1.299,0.104 2.652,0.339 3.948,0.428 C -14.09,-11.55 -8.578,-4.377 0,0"
           style="fill:#000000;fill-opacity:1;fill-rule:nonzero;stroke:none"
           id="path561"
           transform="translate(-43.358703,-12.8738)" />
        <path
           style="color:#000000;fill:#000000;fill-opacity:1;-inkscape-stroke:none"
           d="m -43.564998,32.361073 c -14.213344,0.169565 -27.177665,-9.047223 -27.336915,-9.162598 l -2.85791,-2.068359 c 0,0 -0.167895,8.066349 -0.191895,9.256348 h -9.288574 c -0.007,-1.327999 -0.13802,-25.6920178 -0.14502,-27.0410164 1.030999,0.006 11.376099,0.057988 12.350098,0.062988 1.003999,4.3709956 3.804677,7.2125644 8.138672,8.2265634 2.717997,0.634999 5.985918,0.555624 9.711915,-0.234375 1.420998,-0.302 2.626184,-0.652555 3.388183,-0.893555 0.780999,-0.247 1.180168,-0.379625 1.472168,-0.5156255 11.635989,-5.2479947 19.540587,-5.1831007 24.121583,-4.2041016 4.745995,1.013999 6.965305,3.2182344 6.987305,3.2402344 l 1.601074,1.6611327 1.27002,-1.9467772 2.778808,-4.3051759 -31.770997,-17.2998049 -0.02197,-0.01025 c -8.299621,-4.234954 -13.992759,-12.184452 -16.979005,-23.620606 l 1.322754,0.136231 3.410157,0.208007 3.896484,0.181641 3.905274,0.152344 3.826172,0.09668 4.353515,0.06152 4.283204,0.0029 4.303711,-0.05273 4.543945,-0.114258 4.051758,-0.137695 4.628906,-0.196289 2.481446,-0.128906 1.142578,-0.105469 c 0.120211,4.125307 0.635714,8.187487 1.598144,12.089356 2.152998,8.723991 6.3878741,16.8993005 12.58886787172,24.30029306902 C 8.0014479,9.5487348 17.027976,15.22211 21.227972,17.547108 20.261973,18.752107 12.236956,28.760761 11.811956,29.290761 5.010963,24.878765 -4.4986972,23.665544 -16.494685,25.716542 c -9.393991,1.605998 -16.859364,4.670293 -17.172364,4.800293 -3.270934,1.265999 -6.617947,1.805108 -9.897949,1.844238 z"
           id="path2135"
           transform="translate(-1.4845201e-6)" />
        <path
           style="color:#000000;fill:#000000;-inkscape-stroke:none"
           d="m -61.607249,-36.608285 0.118079,0.446664 c 3.011181,11.531645 9.460435,19.425876 17.903233,23.733887 l 0.0078,0.0039 0.01563,0.0078 31.285156,17.0332035 -2.486328,3.8535156 -0.925781,1.4199219 -1.169922,-1.2128906 -0.002,-0.00391 c -0.102753,-0.1027525 -2.376696,-2.3367221 -7.236328,-3.375 -4.691531,-1.0026212 -12.716894,-1.0471873 -24.431641,4.2363282 l -0.0039,0.00195 -0.002,0.00195 c -0.246685,0.1148945 -0.633473,0.2459346 -1.41211,0.4921874 -0.750391,0.237329 -1.941529,0.583265 -3.341796,0.880859 -3.674612,0.779105 -6.871593,0.849028 -9.494141,0.236329 -4.178758,-0.97768 -6.79646,-3.6322189 -7.765625,-7.8515629 l -0.08789,-0.3867187 -0.396484,-0.00195 c -0.974381,-0.005 -11.321268,-0.056515 -12.349609,-0.0625 l -0.50586,-0.00391 0.0039,0.5058594 c 0.007,1.3501324 0.137535,25.7136702 0.144532,27.0410152 l 0.002,0.498047 h 10.277344 l 0.0098,-0.490234 c 0.0215,-1.065898 0.143775,-6.950394 0.171875,-8.300782 l 2.083985,1.507813 c 0.08865,0.06422 0.901805,0.641692 2.375,1.527343 1.473194,0.885653 3.569698,2.052718 6.109375,3.210938 5.079353,2.31644 11.935812,4.605625 19.152343,4.519531 3.330718,-0.03974 6.73882,-0.588712 10.072266,-1.878906 l 0.0059,-0.002 0.0059,-0.002 c 0.282518,-0.11734 7.731233,-3.173923 17.064453,-4.769532 11.9204217,-2.038078 21.2916532,-0.816997 27.949219,3.501953 l 0.380859,0.246094 0.28125,-0.353515 c 0.425189,-0.530236 8.449861,-10.538948 9.416015,-11.744141 l 0.371094,-0.46289 -0.517578,-0.287109 C 17.306669,14.804285 8.3285245,9.1595644 0.3828125,-0.32226563 -5.7737355,-7.6702114 -9.9696535,-15.77347 -12.103516,-24.419922 c -0.953047,-3.86383 -0.774336,-7.990729 -0.893613,-12.083984 l -2.2307,0.13373 -1.320314,0.08485 -2.788257,0.160041 -2.873336,0.134882 -4.242015,0.146426 -4.26959,0.109375 -4.43928,0.07031 -4.031653,-0.01378 -4.833467,-0.07227 -3.593146,-0.06451 -4.017234,-0.157256 -3.979176,-0.183651 -3.376895,-0.216308 z m 1.997874,0.692269 0.554688,0.05664 3.423828,0.208984 3.902343,0.181641 3.910157,0.152344 3.832031,0.09766 4.359375,0.06055 4.289062,0.0039 4.310547,-0.05273 4.550782,-0.115235 4.054687,-0.136718 4.634766,-0.197266 2.492187,-0.128906 0.648438,-0.06055 c 0.148716,3.974178 0.642081,7.892923 1.572265,11.664062 2.17213,8.801513 6.4440262,17.0479289 12.68945337,24.5019535 h 0.001953 C 7.4200374,9.6316624 16.087427,15.202469 20.480469,17.679688 c -1.385362,1.727991 -8.051358,10.040998 -8.8125,10.990235 -6.914491,-4.30502 -16.3944314,-5.471635 -28.246094,-3.445313 -9.454744,1.616385 -16.937769,4.687419 -17.28125,4.830078 -3.204677,1.238542 -6.485611,1.768163 -9.710937,1.806641 -6.996799,0.08347 -13.730617,-2.151285 -18.726563,-4.429687 -2.497973,-1.139201 -4.561243,-2.288558 -6.007812,-3.158204 -1.44657,-0.869645 -2.31371,-1.487005 -2.304688,-1.480468 l -3.630859,-2.626953 -0.01953,0.953125 c 0,0 -0.145284,6.989462 -0.18164,8.767578 h -8.300781 c -0.01106,-2.081484 -0.129522,-23.9305107 -0.140625,-26.0390627 1.643465,0.00896 10.123134,0.051571 11.501953,0.058594 1.123473,4.2911014 4.02172,7.1972467 8.371093,8.2148437 2.813441,0.657297 6.152313,0.570423 9.929688,-0.230469 1.441725,-0.306405 2.659988,-0.661579 3.433594,-0.90625 0.780383,-0.246805 1.190742,-0.380772 1.527343,-0.537109 l 0.0059,-0.002 c 11.553744,-5.2095972 19.336999,-5.1251238 23.80664,-4.1699221 4.620953,0.9872833 6.778163,3.1472802 6.730469,3.0996094 l 2.037109,2.1132807 1.613282,-2.4746088 3.072265,-4.7578125 -32.257812,-17.5664067 -0.01953,-0.0078 -0.0039,-0.002 c -7.970949,-4.068783 -13.464226,-11.667545 -16.474609,-22.595703 z"
           id="path2137"
           sodipodi:nodetypes="ccccccccccccccsccccccccccccccssscccccccsccccccccccccccccccccccccccccccccccccccccssscccccccccscccccccccscc"
           transform="translate(-1.4845201e-6)" />
        <path
           style="color:#000000;fill:#ffffff;fill-opacity:1;stroke-miterlimit:10;-inkscape-stroke:none"
           d="m -59.152343,-36.27832 -2.345704,0.114258 c 3.047318,11.655565 8.959526,19.946829 17.595703,24.353515 l 0.0039,0.002 0.0078,0.0039 30.623047,16.6757817 -2.080078,3.2207032 -0.447266,0.6875 -0.568359,-0.5898438 -0.0078,-0.00781 c -0.22679,-0.2267905 -2.564763,-2.4905425 -7.582031,-3.5625 -4.845004,-1.03542 -13.0372,-1.0496455 -24.861328,4.2832032 l -0.0078,0.00391 -0.0059,0.00391 c -0.182644,0.085067 -0.552262,0.2136087 -1.328125,0.4589843 -0.734441,0.2322841 -1.906005,0.5718353 -3.277344,0.8632814 -3.603176,0.763958 -6.701314,0.821988 -9.191406,0.240234 -3.963248,-0.927257 -6.325281,-3.3212422 -7.246094,-7.3300779 L -70.082065,2.218801 -71.029331,2.214891 C -72.00342,2.209891 -82.35351,2.156405 -83.37894,2.150438 l -1.207031,-0.00586 0.0059,1.2070312 c 0.007,1.3516942 0.137539,25.7145588 0.144531,27.0410158 l 0.0059,1.189453 h 11.648437 l 0.02344,-1.171875 c 0.01805,-0.894787 0.0967,-4.664449 0.144531,-6.976562 l 1.009765,0.732422 c 0.193372,0.140095 1.376396,0.977791 3.556641,2.222656 2.180245,1.244865 5.246372,2.817236 8.875,4.173828 7.257257,2.713185 16.814876,4.598469 25.935547,1.068359 l 0.01367,-0.0059 0.01367,-0.0059 c 0.239902,-0.09964 7.66716,-3.143424 16.916015,-4.72461 11.8155071,-2.02014 20.99672,-0.791281 27.455078,3.398438 l 0.90625,0.58789 0.675782,-0.841797 c 0.425629,-0.530783 8.449718,-10.538769 9.416015,-11.74414 L 23.046875,17.1875 21.806641,16.501953 C 17.692533,14.2245 8.7835865,8.6210041 0.91601563,-0.76757812 -5.1788389,-8.0418917 -9.322417,-16.049188 -11.429688,-24.587891 c -0.94043,-3.812675 -1.465706,-7.783792 -1.583984,-11.826171 l -2.388672,0.07031 c 0.122984,4.203185 0.669054,8.341688 1.652344,12.328125 2.198721,8.909262 6.5268637,17.2555463 12.83398437,24.78320312 C 6.611035,9.7498084 14.833941,15.202226 19.441406,17.867187 c -1.800945,2.246314 -6.854593,8.549417 -7.970703,9.941407 -7.0590276,-4.15941 -16.5052974,-5.263207 -28.166015,-3.269532 -9.539109,1.630808 -17.043591,4.714641 -17.429688,4.875 l 0.02734,-0.01172 c -8.324294,3.221876 -17.286345,1.520183 -24.236328,-1.078125 -3.474992,-1.299154 -6.435388,-2.814197 -8.529297,-4.009766 -2.09391,-1.195569 -3.433262,-2.151127 -3.337891,-2.082031 l -4.705078,-3.40625 -0.04883,2.279297 c 0,0 -0.117769,5.736824 -0.166016,8.08789 h -6.93164 c -0.01588,-2.974866 -0.116805,-21.6320129 -0.132813,-24.6484371 2.238309,0.011957 8.546515,0.045551 10.328125,0.054687 1.289723,4.2052706 4.3153,7.1762821 8.6875,8.1992191 h 0.002 c 2.945896,0.688242 6.381661,0.587523 10.230469,-0.228516 v -0.002 c 1.470656,-0.312553 2.712397,-0.672159 3.501953,-0.921875 0.786134,-0.248623 1.213879,-0.385332 1.615235,-0.572265 l -0.01172,0.0059 c 11.447824,-5.1631308 19.061929,-5.0475764 23.378906,-4.1250004 4.471285,0.9553062 6.569781,3.0931554 6.390625,2.9140625 -1.37e-4,-1.373e-4 0.0021,0.00209 0.002,0.00195 l 2.626953,2.7265619 2.089844,-3.2050776 3.4804687,-5.3886719 -32.9218747,-17.9257815 -0.03125,-0.01563 -0.0078,-0.0039 c -7.950363,-4.059859 -13.380911,-11.227633 -16.307617,-22.421875 z"
           id="path569"
           sodipodi:nodetypes="ccsccccccsccccsccccccccccccccssccccsccccccccccccccccsscccccccccccscccsccccccccc" />
      </g>
    </g>
    <g
       id="g176"
       transform="matrix(0.19006226,0,0,-0.19006226,5.520962,5.1904539)"
       inkscape:label="letters"
       style="fill:#ffffff">
      <path
         d="M 0,0 C -0.031,0.149 -0.062,0.298 -0.093,0.447 12.135,2.98 24.752,2.98 36.979,0.447 36.949,0.298 36.918,0.149 36.887,0 24.72,2.52 12.167,2.52 0,0"
         style="display:inline;fill:#ffffff;fill-opacity:1;fill-rule:nonzero;stroke:none"
         id="path202"
         transform="translate(-17.267699,-2.8628787)"
         inkscape:label="ul" />
      <path
         d="m 0,0 c -0.238,0.044 -0.465,0.121 -0.68,0.231 -0.215,0.11 -0.379,0.215 -0.492,0.315 -0.051,-0.077 -0.102,-0.154 -0.153,-0.232 -0.096,0.017 -0.192,0.033 -0.288,0.049 0.06,0.461 0.12,0.923 0.18,1.385 C -1.342,1.733 -1.251,1.718 -1.16,1.702 -1.141,1.585 -1.1,1.45 -1.036,1.296 -0.973,1.142 -0.895,1 -0.803,0.87 -0.706,0.739 -0.589,0.623 -0.453,0.52 -0.317,0.417 -0.165,0.35 0.005,0.319 0.23,0.277 0.405,0.29 0.531,0.356 0.657,0.422 0.738,0.546 0.773,0.727 0.791,0.825 0.782,0.91 0.745,0.984 0.707,1.057 0.649,1.125 0.571,1.188 0.483,1.255 0.384,1.317 0.275,1.373 0.165,1.429 0.03,1.496 -0.131,1.576 -0.292,1.656 -0.429,1.731 -0.542,1.803 -0.654,1.875 -0.766,1.976 -0.878,2.106 -0.975,2.222 -1.046,2.353 -1.091,2.499 -1.137,2.646 -1.144,2.813 -1.113,3 c 0.058,0.347 0.255,0.603 0.595,0.765 0.34,0.162 0.757,0.198 1.249,0.108 C 0.964,3.83 1.174,3.766 1.361,3.684 1.548,3.601 1.703,3.519 1.825,3.439 1.866,3.506 1.907,3.573 1.948,3.64 2.045,3.62 2.142,3.601 2.239,3.581 2.176,3.16 2.112,2.739 2.048,2.318 1.959,2.336 1.871,2.354 1.783,2.371 1.745,2.643 1.637,2.893 1.457,3.12 1.276,3.347 1.06,3.484 0.81,3.531 0.614,3.567 0.452,3.556 0.326,3.498 0.199,3.44 0.124,3.341 0.098,3.2 0.065,3.014 0.123,2.864 0.27,2.751 0.418,2.638 0.631,2.518 0.909,2.389 1.338,2.19 1.636,1.971 1.805,1.735 1.974,1.499 2.026,1.23 1.965,0.93 1.883,0.529 1.66,0.251 1.301,0.094 0.94,-0.064 0.508,-0.094 0,0"
         style="display:inline;fill:#ffffff;fill-opacity:1;fill-rule:nonzero;stroke:none"
         id="path198"
         transform="translate(17.8306,-1.7231786)"
         inkscape:label="s" />
      <path
         d="m 0,0 c -0.741,0.12 -1.483,0.23 -2.227,0.331 0.013,0.09 0.025,0.181 0.037,0.271 0.048,-0.002 0.106,-0.003 0.174,-0.005 0.068,-0.002 0.12,0.003 0.158,0.016 0.056,0.02 0.099,0.054 0.128,0.103 0.03,0.049 0.052,0.123 0.066,0.225 0.082,0.578 0.164,1.156 0.246,1.734 0.035,0.252 0.014,0.448 -0.064,0.589 -0.078,0.141 -0.211,0.224 -0.399,0.25 -0.102,0.014 -0.2,0.011 -0.292,-0.007 C -2.266,3.489 -2.358,3.457 -2.45,3.411 -2.531,3.372 -2.597,3.329 -2.648,3.282 -2.7,3.236 -2.743,3.195 -2.779,3.159 -2.863,2.495 -2.947,1.83 -3.031,1.165 -3.042,1.078 -3.038,1.004 -3.021,0.943 c 0.018,-0.061 0.053,-0.11 0.107,-0.147 0.037,-0.028 0.084,-0.054 0.141,-0.079 0.058,-0.025 0.114,-0.045 0.17,-0.06 -0.012,-0.09 -0.023,-0.18 -0.035,-0.271 -0.753,0.099 -1.506,0.189 -2.26,0.269 0.01,0.091 0.02,0.181 0.029,0.272 0.063,-0.002 0.127,-0.002 0.191,0 0.064,0.002 0.12,0.008 0.166,0.018 0.083,0.018 0.142,0.054 0.178,0.108 0.037,0.054 0.06,0.126 0.071,0.218 0.081,0.721 0.162,1.443 0.243,2.164 0.009,0.077 -0.003,0.155 -0.035,0.234 -0.033,0.079 -0.08,0.146 -0.142,0.2 -0.043,0.035 -0.098,0.067 -0.167,0.094 -0.069,0.028 -0.145,0.05 -0.229,0.066 0.01,0.091 0.019,0.181 0.029,0.272 0.618,-0.033 1.237,-0.072 1.855,-0.117 0.017,-0.021 0.034,-0.042 0.051,-0.063 -0.022,-0.18 -0.045,-0.359 -0.068,-0.539 0.006,0 0.011,-10e-4 0.016,-10e-4 0.079,0.052 0.176,0.115 0.29,0.189 0.114,0.073 0.218,0.131 0.313,0.174 0.102,0.047 0.234,0.081 0.394,0.102 C -1.552,4.067 -1.385,4.065 -1.21,4.04 -0.79,3.981 -0.492,3.819 -0.318,3.559 -0.144,3.3 -0.087,2.981 -0.146,2.604 -0.239,1.999 -0.333,1.395 -0.427,0.791 -0.441,0.7 -0.439,0.625 -0.42,0.567 -0.401,0.508 -0.357,0.457 -0.288,0.413 -0.251,0.39 -0.205,0.365 -0.149,0.339 -0.094,0.312 -0.029,0.289 0.043,0.27 0.029,0.18 0.014,0.09 0,0"
         style="fill:#ffffff;fill-opacity:1;fill-rule:nonzero;stroke:none"
         id="path194"
         transform="translate(15.799891,-1.2427931)"
         inkscape:label="n" />
      <path
         d="M 0,0 C 0.067,0.135 0.122,0.3 0.166,0.497 0.209,0.693 0.242,0.923 0.265,1.187 0.28,1.361 0.284,1.561 0.278,1.787 0.272,2.013 0.248,2.193 0.208,2.326 0.16,2.488 0.085,2.618 -0.018,2.717 -0.12,2.815 -0.255,2.871 -0.423,2.884 -0.606,2.898 -0.756,2.861 -0.872,2.772 -0.989,2.683 -1.082,2.563 -1.152,2.413 -1.216,2.274 -1.264,2.111 -1.298,1.922 -1.332,1.733 -1.355,1.535 -1.37,1.329 -1.388,1.057 -1.395,0.832 -1.389,0.653 c 0.005,-0.18 0.035,-0.361 0.09,-0.545 0.047,-0.158 0.121,-0.286 0.222,-0.384 0.1,-0.097 0.233,-0.152 0.397,-0.165 0.149,-0.011 0.281,0.02 0.395,0.095 C -0.171,-0.272 -0.076,-0.156 0,0 M 1.206,2.496 C 1.38,2.306 1.504,2.087 1.58,1.839 1.656,1.591 1.679,1.327 1.651,1.05 1.623,0.774 1.548,0.519 1.427,0.284 1.306,0.049 1.145,-0.146 0.944,-0.303 0.729,-0.47 0.481,-0.591 0.201,-0.667 -0.08,-0.743 -0.394,-0.766 -0.744,-0.74 c -0.303,0.024 -0.578,0.087 -0.827,0.192 -0.249,0.104 -0.467,0.249 -0.654,0.435 -0.179,0.178 -0.318,0.393 -0.415,0.645 -0.097,0.251 -0.138,0.529 -0.122,0.833 0.016,0.299 0.079,0.562 0.191,0.79 0.111,0.227 0.271,0.426 0.48,0.596 0.202,0.163 0.446,0.284 0.733,0.36 0.287,0.077 0.604,0.103 0.951,0.076 C -0.044,3.159 0.271,3.084 0.537,2.965 0.804,2.845 1.027,2.688 1.206,2.496"
         style="fill:#ffffff;fill-opacity:1;fill-rule:nonzero;stroke:none"
         id="path190"
         transform="translate(8.9602005,0.27821972)"
         inkscape:label="o" />
      <path
         d="M 0,0 C -0.161,-0.066 -0.333,-0.126 -0.515,-0.18 -0.698,-0.233 -0.92,-0.258 -1.181,-0.256 -1.569,-0.253 -1.856,-0.158 -2.045,0.031 -2.233,0.22 -2.33,0.49 -2.331,0.841 -2.335,1.606 -2.338,2.371 -2.341,3.137 -2.574,3.135 -2.806,3.134 -3.038,3.131 -3.04,3.267 -3.041,3.403 -3.043,3.539 c 0.239,0.003 0.477,0.005 0.715,0.006 -0.001,0.378 -0.003,0.756 -0.005,1.134 0.425,10e-4 0.85,0 1.274,-0.003 C -1.062,4.298 -1.065,3.92 -1.069,3.542 -0.705,3.539 -0.341,3.533 0.023,3.526 0.02,3.39 0.017,3.254 0.015,3.118 -0.345,3.125 -0.705,3.13 -1.065,3.134 -1.071,2.451 -1.077,1.768 -1.083,1.086 -1.085,0.794 -1.046,0.587 -0.966,0.464 -0.885,0.341 -0.74,0.278 -0.529,0.275 c 0.068,-0.001 0.162,0.003 0.283,0.011 0.12,0.007 0.205,0.017 0.253,0.028 C 0.004,0.21 0.002,0.105 0,0"
         style="fill:#ffffff;fill-opacity:1;fill-rule:nonzero;stroke:none"
         id="path182"
         transform="translate(3.0897071,0.08109976)"
         inkscape:label="t" />
      <path
         d="m 0,0 c -0.008,-0.19 -0.092,-0.348 -0.25,-0.475 -0.159,-0.127 -0.342,-0.186 -0.551,-0.179 -0.211,0.007 -0.391,0.08 -0.54,0.218 -0.148,0.138 -0.221,0.302 -0.216,0.491 0.006,0.189 0.087,0.35 0.245,0.48 0.159,0.13 0.346,0.191 0.56,0.184 C -0.538,0.711 -0.356,0.637 -0.208,0.496 -0.061,0.355 0.008,0.189 0,0 m 0.323,-5.126 c -0.786,0.039 -1.572,0.068 -2.359,0.087 0.002,0.091 0.004,0.182 0.006,0.273 0.065,0.003 0.129,0.008 0.192,0.014 0.062,0.006 0.116,0.017 0.162,0.033 0.081,0.027 0.138,0.069 0.172,0.124 0.035,0.055 0.053,0.129 0.056,0.221 0.021,0.726 0.043,1.452 0.065,2.177 0.002,0.088 -0.016,0.165 -0.055,0.232 -0.039,0.068 -0.089,0.122 -0.15,0.164 -0.046,0.031 -0.115,0.062 -0.209,0.092 -0.093,0.029 -0.179,0.049 -0.256,0.058 0.002,0.091 0.004,0.182 0.006,0.273 0.635,0.018 1.271,0.03 1.907,0.035 0.019,-0.019 0.037,-0.039 0.056,-0.058 -0.043,-0.99 -0.086,-1.98 -0.128,-2.969 -0.004,-0.088 0.012,-0.163 0.046,-0.225 0.035,-0.063 0.087,-0.111 0.155,-0.144 0.049,-0.024 0.103,-0.047 0.163,-0.067 0.058,-0.02 0.12,-0.036 0.185,-0.047 C 0.332,-4.944 0.328,-5.035 0.323,-5.126"
         style="fill:#ffffff;fill-opacity:1;fill-rule:nonzero;stroke:none"
         id="path186"
         transform="translate(5.3840124,4.9426022)"
         inkscape:label="i" />
      <path
         d="M 0,0 C 0.039,0.145 0.06,0.318 0.063,0.52 0.067,0.721 0.053,0.953 0.023,1.216 0.003,1.39 -0.032,1.586 -0.084,1.807 -0.135,2.027 -0.193,2.198 -0.26,2.321 -0.339,2.47 -0.439,2.583 -0.559,2.659 -0.679,2.735 -0.822,2.763 -0.99,2.742 -1.172,2.719 -1.312,2.652 -1.408,2.542 -1.505,2.432 -1.573,2.295 -1.611,2.134 -1.646,1.986 -1.662,1.816 -1.657,1.625 c 0.005,-0.192 0.021,-0.391 0.048,-0.596 0.036,-0.27 0.075,-0.492 0.116,-0.666 0.041,-0.175 0.107,-0.347 0.198,-0.516 0.077,-0.146 0.175,-0.257 0.293,-0.332 0.118,-0.075 0.259,-0.103 0.423,-0.082 0.149,0.018 0.271,0.075 0.368,0.171 C -0.114,-0.3 -0.044,-0.168 0,0 M 0.685,2.686 C 0.893,2.535 1.059,2.345 1.182,2.117 1.306,1.889 1.381,1.636 1.409,1.358 1.437,1.082 1.414,0.817 1.342,0.563 1.271,0.308 1.151,0.085 0.986,-0.108 0.809,-0.315 0.59,-0.483 0.33,-0.614 0.07,-0.744 -0.234,-0.83 -0.583,-0.873 c -0.301,-0.038 -0.584,-0.03 -0.849,0.022 -0.265,0.053 -0.508,0.151 -0.729,0.297 -0.212,0.139 -0.391,0.321 -0.536,0.548 -0.146,0.227 -0.241,0.491 -0.286,0.792 -0.044,0.297 -0.034,0.567 0.03,0.813 0.064,0.245 0.181,0.471 0.353,0.68 0.165,0.2 0.38,0.367 0.647,0.499 0.266,0.133 0.573,0.221 0.918,0.264 0.361,0.045 0.685,0.035 0.971,-0.03 C 0.221,2.948 0.471,2.839 0.685,2.686"
         style="fill:#ffffff;fill-opacity:1;fill-rule:nonzero;stroke:none"
         id="path170"
         transform="translate(-9.5701896,-0.01989872)"
         inkscape:label="o" />
      <path
         d="m 0,0 c -0.783,-0.055 -1.566,-0.119 -2.347,-0.194 -0.009,0.091 -0.018,0.181 -0.026,0.272 0.064,0.011 0.127,0.023 0.188,0.036 0.06,0.014 0.114,0.031 0.16,0.053 0.077,0.037 0.128,0.085 0.152,0.144 0.024,0.058 0.032,0.133 0.023,0.225 -0.123,1.377 -0.246,2.754 -0.369,4.131 -0.008,0.094 -0.036,0.18 -0.084,0.257 -0.048,0.077 -0.108,0.134 -0.18,0.17 -0.056,0.027 -0.138,0.051 -0.247,0.071 -0.11,0.019 -0.205,0.027 -0.287,0.025 -0.009,0.09 -0.018,0.181 -0.027,0.272 0.661,0.096 1.323,0.187 1.987,0.27 0.021,-0.019 0.042,-0.037 0.064,-0.055 0.126,-1.664 0.252,-3.327 0.378,-4.99 0.007,-0.092 0.03,-0.166 0.067,-0.22 C -0.512,0.412 -0.455,0.371 -0.38,0.344 -0.328,0.326 -0.274,0.309 -0.218,0.296 -0.161,0.283 -0.095,0.275 -0.019,0.272 -0.013,0.182 -0.006,0.091 0,0"
         style="fill:#ffffff;fill-opacity:1;fill-rule:nonzero;stroke:none"
         id="path174"
         transform="translate(-5.2173076,-0.29389684)"
         inkscape:label="l" />
      <path
         d="m 0,0 c -0.594,-0.044 -1.187,-0.093 -1.779,-0.149 -0.02,0.017 -0.039,0.034 -0.058,0.051 -0.006,0.163 -0.011,0.327 -0.016,0.49 -0.008,0 -0.015,-0.001 -0.023,-0.001 C -1.958,0.311 -2.039,0.233 -2.117,0.156 -2.195,0.08 -2.289,0.01 -2.399,-0.055 -2.523,-0.127 -2.641,-0.182 -2.753,-0.219 -2.864,-0.256 -3.028,-0.279 -3.244,-0.29 -3.619,-0.308 -3.911,-0.211 -4.125,0.004 -4.339,0.22 -4.459,0.533 -4.484,0.947 -4.518,1.507 -4.553,2.068 -4.587,2.628 -4.593,2.725 -4.616,2.803 -4.659,2.861 -4.701,2.92 -4.755,2.971 -4.822,3.014 -4.876,3.049 -4.944,3.071 -5.027,3.082 -5.11,3.093 -5.185,3.098 -5.252,3.099 -5.258,3.19 -5.264,3.281 -5.271,3.372 c 0.623,0.074 1.246,0.142 1.87,0.205 0.015,-0.018 0.03,-0.036 0.045,-0.054 0.039,-0.829 0.079,-1.658 0.118,-2.486 0.012,-0.257 0.071,-0.444 0.175,-0.561 0.105,-0.118 0.243,-0.173 0.416,-0.166 0.178,0.007 0.335,0.059 0.473,0.157 0.138,0.097 0.239,0.199 0.301,0.306 -0.023,0.672 -0.045,1.344 -0.067,2.017 -0.003,0.084 -0.022,0.16 -0.057,0.226 -0.036,0.066 -0.087,0.119 -0.153,0.16 -0.047,0.028 -0.115,0.045 -0.201,0.052 -0.087,0.007 -0.176,0.011 -0.266,0.012 -0.004,0.091 -0.008,0.183 -0.011,0.274 0.627,0.057 1.256,0.108 1.885,0.153 0.02,-0.018 0.04,-0.036 0.059,-0.055 0.019,-0.963 0.038,-1.926 0.057,-2.889 0.001,-0.087 0.02,-0.161 0.056,-0.221 C -0.535,0.441 -0.483,0.39 -0.415,0.349 -0.367,0.32 -0.305,0.3 -0.229,0.291 -0.153,0.281 -0.078,0.275 -0.003,0.273 -0.002,0.182 -0.001,0.091 0,0"
         style="fill:#ffffff;fill-opacity:1;fill-rule:nonzero;stroke:none"
         id="path178"
         inkscape:label="u" />
      <path
         d="m 0,0 c -0.319,-0.057 -0.624,-0.072 -0.916,-0.045 -0.291,0.028 -0.544,0.076 -0.757,0.146 -0.068,-0.103 -0.136,-0.205 -0.203,-0.308 -0.105,-0.021 -0.209,-0.042 -0.313,-0.063 -0.144,0.624 -0.288,1.247 -0.432,1.871 0.107,0.022 0.215,0.044 0.323,0.065 0.108,-0.164 0.238,-0.334 0.39,-0.511 0.151,-0.176 0.315,-0.329 0.492,-0.458 0.183,-0.135 0.377,-0.237 0.582,-0.305 0.206,-0.068 0.433,-0.08 0.682,-0.035 0.336,0.06 0.578,0.186 0.73,0.381 C 0.73,0.932 0.785,1.154 0.744,1.402 0.709,1.607 0.604,1.766 0.426,1.878 0.248,1.991 -0.012,2.07 -0.355,2.113 -0.578,2.142 -0.784,2.168 -0.972,2.192 -1.16,2.216 -1.337,2.242 -1.505,2.272 -1.892,2.343 -2.199,2.49 -2.427,2.714 -2.655,2.939 -2.803,3.21 -2.868,3.531 c -0.041,0.203 -0.035,0.408 0.02,0.614 0.055,0.206 0.157,0.402 0.306,0.586 0.143,0.174 0.34,0.33 0.591,0.469 0.251,0.14 0.535,0.238 0.851,0.295 0.307,0.055 0.603,0.065 0.885,0.03 C 0.067,5.489 0.292,5.443 0.459,5.387 0.526,5.474 0.593,5.561 0.661,5.648 0.775,5.666 0.888,5.684 1.002,5.702 1.106,5.107 1.211,4.512 1.315,3.918 1.205,3.9 1.095,3.883 0.984,3.865 0.877,4.045 0.754,4.227 0.617,4.411 0.479,4.595 0.341,4.744 0.203,4.858 0.052,4.98 -0.114,5.069 -0.295,5.125 -0.476,5.182 -0.678,5.19 -0.902,5.15 -1.182,5.1 -1.398,4.983 -1.547,4.8 -1.696,4.617 -1.75,4.415 -1.708,4.194 -1.668,3.985 -1.56,3.829 -1.383,3.725 -1.206,3.62 -0.947,3.548 -0.607,3.504 -0.408,3.477 -0.204,3.449 0.003,3.421 0.21,3.393 0.394,3.364 0.556,3.333 0.949,3.256 1.26,3.11 1.489,2.897 1.719,2.684 1.86,2.397 1.916,2.036 1.951,1.809 1.931,1.581 1.857,1.352 1.783,1.123 1.667,0.924 1.509,0.754 1.335,0.567 1.127,0.41 0.882,0.283 0.638,0.155 0.344,0.062 0,0"
         style="fill:#ffffff;fill-opacity:1;fill-rule:nonzero;stroke:none"
         id="path166"
         transform="translate(-14.97841,-1.6511822)"
         inkscape:label="S" />
    </g>
  </g>
</svg>
