<?xml version="1.0" encoding="UTF-8" standalone="no"?>
<!-- Created with Inkscape (http://www.inkscape.org/) -->

<svg
   version="1.1"
   id="svg2"
   width="64"
   height="64.000687"
   viewBox="0 0 64 64.000687"
   sodipodi:docname="777-coin.svg"
   inkscape:version="1.2.2 (b0a8486541, 2022-12-01)"
   xmlns:inkscape="http://www.inkscape.org/namespaces/inkscape"
   xmlns:sodipodi="http://sodipodi.sourceforge.net/DTD/sodipodi-0.dtd"
   xmlns="http://www.w3.org/2000/svg"
   xmlns:svg="http://www.w3.org/2000/svg">
  <defs
     id="defs6">
    <clipPath
       clipPathUnits="userSpaceOnUse"
       id="clipPath18">
      <path
         d="M 0,110.551 H 110.551 V 0 H 0 Z"
         id="path16" />
    </clipPath>
  </defs>
  <sodipodi:namedview
     id="namedview4"
     pagecolor="#ffffff"
     bordercolor="#000000"
     borderopacity="0.25"
     inkscape:showpageshadow="2"
     inkscape:pageopacity="0.0"
     inkscape:pagecheckerboard="0"
     inkscape:deskcolor="#d1d1d1"
     showgrid="false"
     inkscape:zoom="7.1285696"
     inkscape:cx="9.8196418"
     inkscape:cy="-5.4709433"
     inkscape:window-width="2560"
     inkscape:window-height="1361"
     inkscape:window-x="0"
     inkscape:window-y="0"
     inkscape:window-maximized="1"
     inkscape:current-layer="layer7">
    <inkscape:page
       x="0"
       y="0"
       id="page8"
       width="64"
       height="64.000687"
       inkscape:export-filename="../../Pictures/logos/round-icon.png"
       inkscape:export-xdpi="96"
       inkscape:export-ydpi="96" />
  </sodipodi:namedview>
  <g
     inkscape:groupmode="layer"
     id="layer7"
     inkscape:label="c"
     transform="matrix(0.68417733,0,0,-0.68417733,38.38618,28.569399)">
    <g
       id="g10"
       inkscape:groupmode="layer"
       inkscape:label="ring"
       transform="translate(-64.6098,-60.290298)">
      <g
         id="g20"
         transform="translate(102.0472,55.2756)"
         style="display:inline;fill:#000000"
         inkscape:label="background">
        <path
           d="m 0,0 c 0,-25.831 -20.94,-46.772 -46.772,-46.772 -25.831,0 -46.771,20.941 -46.771,46.772 0,25.831 20.94,46.772 46.771,46.772 C -20.94,46.772 0,25.831 0,0"
           style="display:inline;fill:#000000;fill-opacity:1;fill-rule:nonzero;stroke:none"
           id="path22" />
      </g>
      <g
         id="g116"
         transform="translate(85.688402,55.2756)"
         inkscape:label="inner background"
         style="fill:#ffffff">
        <path
           d="m 0,0 c 0,-16.797 -13.616,-30.413 -30.413,-30.413 -16.796,0 -30.413,13.616 -30.413,30.413 0,16.797 13.617,30.413 30.413,30.413 C -13.616,30.413 0,16.797 0,0"
           style="fill:#ffffff;fill-opacity:1;fill-rule:nonzero;stroke:none"
           id="path118"
           inkscape:label="path118" />
      </g>
      <g
         id="g68"
         transform="translate(18.4378,72.7231)"
         inkscape:label="770"
         style="fill:#ffffff">
        <path
           d="M 0,0 -9.395,2.63 -9.614,3.571 -1.24,1.059 -1.909,3.936 C -1.994,4.3 -2.063,4.584 -2.115,4.788 -2.166,4.992 -2.253,5.171 -2.372,5.324 -2.466,5.448 -2.64,5.532 -2.891,5.577 c -0.25,0.045 -0.548,0.058 -0.892,0.04 l -0.108,0.458 3.096,0.721 1.542,-6.622 z"
           style="fill:#ffffff;fill-opacity:1;fill-rule:nonzero;stroke:none"
           id="path114"
           transform="translate(77.216902,-11.8562)" />
        <path
           d="m 0,0 -9.749,0.456 -0.425,0.867 8.729,-0.57 -1.302,2.653 C -2.912,3.742 -3.042,4.003 -3.138,4.19 -3.235,4.377 -3.358,4.533 -3.509,4.654 -3.63,4.753 -3.817,4.797 -4.072,4.785 -4.326,4.773 -4.62,4.719 -4.952,4.624 L -5.159,5.046 -2.304,6.442 0.69,0.337 Z"
           style="fill:#ffffff;fill-opacity:1;fill-rule:nonzero;stroke:none"
           id="path110"
           transform="translate(74.936002,-2.952)" />
        <path
           d="m 0,0 -9.598,-1.729 -0.606,0.751 8.628,1.39 -1.857,2.299 C -3.667,3.002 -3.853,3.228 -3.988,3.389 -4.124,3.55 -4.279,3.674 -4.454,3.759 -4.591,3.829 -4.785,3.83 -5.03,3.761 -5.275,3.692 -5.549,3.574 -5.851,3.407 l -0.295,0.366 2.47,2 4.273,-5.29 z"
           style="fill:#ffffff;fill-opacity:1;fill-rule:nonzero;stroke:none"
           id="path106"
           transform="translate(70.721602,5.1981002)" />
        <path
           d="m 0,0 -8.969,-3.837 -0.76,0.596 8.1,3.29 -2.325,1.822 C -4.249,2.102 -4.479,2.28 -4.648,2.407 -4.816,2.533 -4.996,2.618 -5.184,2.664 -5.336,2.701 -5.524,2.657 -5.748,2.535 -5.972,2.414 -6.212,2.237 -6.468,2.008 l -0.37,0.289 1.959,2.502 5.352,-4.195 z"
           style="fill:#ffffff;fill-opacity:1;fill-rule:nonzero;stroke:none"
           id="path102"
           transform="translate(64.799197,12.2138)" />
        <path
           d="m 0,0 c -0.085,-0.173 -0.195,-0.276 -0.333,-0.307 -0.137,-0.031 -0.281,-0.01 -0.431,0.063 -0.097,0.047 -0.276,0.186 -0.538,0.419 -0.262,0.233 -0.553,0.453 -0.872,0.66 0.081,-0.402 0.194,-0.798 0.338,-1.188 0.144,-0.391 0.173,-0.677 0.084,-0.859 -0.062,-0.127 -0.172,-0.211 -0.331,-0.25 -0.158,-0.041 -0.299,-0.032 -0.422,0.029 -0.084,0.042 -0.152,0.104 -0.202,0.188 -0.051,0.083 -0.081,0.183 -0.091,0.298 -0.006,0.108 0.026,0.332 0.093,0.672 0.067,0.339 0.114,0.7 0.137,1.081 C -2.842,0.566 -3.1,0.308 -3.34,0.031 c -0.241,-0.278 -0.397,-0.439 -0.468,-0.487 -0.108,-0.066 -0.205,-0.106 -0.29,-0.119 -0.086,-0.014 -0.177,0.003 -0.274,0.05 -0.127,0.063 -0.224,0.164 -0.29,0.309 -0.066,0.144 -0.066,0.284 0,0.419 0.089,0.182 0.331,0.337 0.728,0.464 0.397,0.127 0.778,0.284 1.146,0.467 -0.344,0.12 -0.693,0.211 -1.049,0.278 -0.355,0.065 -0.579,0.12 -0.671,0.165 -0.151,0.073 -0.257,0.173 -0.317,0.3 -0.059,0.127 -0.048,0.278 0.038,0.451 0.076,0.159 0.186,0.258 0.327,0.297 0.141,0.039 0.287,0.021 0.437,-0.052 0.119,-0.058 0.292,-0.191 0.518,-0.399 0.226,-0.207 0.526,-0.431 0.897,-0.669 -0.097,0.449 -0.213,0.857 -0.348,1.227 -0.136,0.369 -0.16,0.644 -0.073,0.82 0.061,0.128 0.171,0.212 0.33,0.252 0.158,0.04 0.299,0.031 0.422,-0.03 C -2.188,3.73 -2.119,3.669 -2.071,3.588 -2.021,3.506 -1.992,3.408 -1.98,3.294 -1.975,3.186 -2.007,2.96 -2.074,2.615 -2.142,2.27 -2.188,1.911 -2.212,1.536 c 0.28,0.254 0.537,0.514 0.77,0.779 0.231,0.265 0.388,0.427 0.47,0.487 0.086,0.059 0.178,0.095 0.278,0.109 0.099,0.014 0.194,-10e-4 0.283,-0.044 0.128,-0.062 0.226,-0.166 0.29,-0.31 0.066,-0.145 0.066,-0.285 0,-0.42 C -0.207,1.96 -0.429,1.811 -0.786,1.69 -1.144,1.571 -1.544,1.408 -1.988,1.204 -1.576,1.066 -1.215,0.968 -0.901,0.911 -0.587,0.856 -0.379,0.802 -0.279,0.752 -0.128,0.679 -0.024,0.575 0.031,0.44 0.089,0.305 0.077,0.159 0,0"
           style="fill:#ffffff;fill-opacity:1;fill-rule:nonzero;stroke:none"
           id="path98"
           transform="translate(57.366097,18.6011)" />
        <path
           d="m 0,0 -6.61,-7.176 -0.937,0.23 6.04,6.322 -2.868,0.71 C -4.737,0.175 -5.023,0.243 -5.227,0.289 -5.433,0.336 -5.63,0.339 -5.822,0.304 -5.975,0.275 -6.128,0.159 -6.283,-0.044 -6.437,-0.247 -6.584,-0.507 -6.722,-0.821 l -0.458,0.113 0.762,3.085 6.602,-1.632 z"
           style="fill:#ffffff;fill-opacity:1;fill-rule:nonzero;stroke:none"
           id="path94"
           transform="translate(50.1876,21.0608)" />
        <path
           d="M 0,0 C -0.001,0.06 0.002,0.132 0.006,0.218 0.01,0.305 0.011,0.388 0.011,0.471 0.01,1.502 -0.115,2.291 -0.364,2.838 -0.612,3.385 -0.934,3.659 -1.329,3.659 -1.711,3.658 -2.022,3.45 -2.259,3.033 -2.497,2.614 -2.614,2.014 -2.613,1.227 c 10e-4,-0.687 0.124,-1.235 0.368,-1.643 0.243,-0.408 0.562,-0.612 0.958,-0.611 0.249,10e-4 0.479,0.051 0.689,0.15 0.21,0.099 0.406,0.283 0.585,0.555 10e-4,0.021 0.002,0.059 0.007,0.112 C -0.002,-0.156 0,-0.087 0,0 M 2.352,0.357 C 2.355,-1.207 1.829,-2.486 0.773,-3.484 -0.281,-4.479 -1.724,-5.098 -3.553,-5.342 l -0.15,0.639 0.683,0.116 c 0.528,0.151 0.966,0.344 1.313,0.581 0.348,0.237 0.633,0.513 0.856,0.827 0.231,0.322 0.407,0.665 0.527,1.026 0.119,0.36 0.208,0.732 0.268,1.114 -0.378,-0.331 -0.744,-0.55 -1.098,-0.655 -0.354,-0.106 -0.753,-0.159 -1.195,-0.16 -0.37,-10e-4 -0.716,0.073 -1.038,0.219 -0.323,0.145 -0.603,0.344 -0.839,0.598 -0.242,0.257 -0.43,0.567 -0.566,0.931 C -4.929,0.256 -4.996,0.651 -4.998,1.076 -5,1.983 -4.653,2.734 -3.958,3.33 -3.263,3.925 -2.393,4.225 -1.35,4.226 -0.219,4.227 0.679,3.878 1.346,3.179 2.014,2.478 2.349,1.539 2.352,0.357"
           style="fill:#ffffff;fill-opacity:1;fill-rule:nonzero;stroke:none"
           id="path90"
           transform="translate(38.0221,19.8902)" />
        <path
           d="M 0,0 C -0.178,0.655 -0.436,1.143 -0.771,1.466 -1.106,1.789 -1.467,1.897 -1.852,1.793 -2.109,1.722 -2.32,1.617 -2.485,1.479 -2.649,1.34 -2.79,1.106 -2.905,0.777 -2.899,0.755 -2.89,0.719 -2.878,0.666 -2.866,0.615 -2.85,0.545 -2.832,0.462 c 0.021,-0.092 0.04,-0.178 0.06,-0.257 0.02,-0.079 0.037,-0.146 0.051,-0.2 0.271,-0.995 0.601,-1.723 0.988,-2.186 0.386,-0.462 0.77,-0.641 1.153,-0.536 0.368,0.1 0.609,0.388 0.721,0.865 C 0.254,-1.377 0.207,-0.758 0,0 m 2.255,0.796 c 0.24,-0.879 0.11,-1.705 -0.389,-2.477 -0.5,-0.775 -1.263,-1.301 -2.291,-1.583 -1.074,-0.293 -2.028,-0.191 -2.863,0.305 -0.835,0.495 -1.407,1.311 -1.717,2.447 -0.413,1.517 -0.244,2.91 0.509,4.181 0.753,1.271 1.981,2.25 3.681,2.937 L -0.503,6.029 -1.132,5.737 C -1.596,5.463 -1.965,5.162 -2.237,4.832 -2.51,4.5 -2.714,4.152 -2.85,3.784 -2.981,3.432 -3.057,3.054 -3.075,2.651 -3.094,2.247 -3.086,1.856 -3.049,1.478 c 0.272,0.423 0.57,0.738 0.895,0.946 0.323,0.21 0.688,0.369 1.094,0.48 0.712,0.195 1.387,0.1 2.023,-0.286 C 1.597,2.232 2.028,1.625 2.255,0.796"
           style="fill:#ffffff;fill-opacity:1;fill-rule:nonzero;stroke:none"
           id="path86"
           transform="translate(28.336,18.8243)" />
        <path
           d="M 0,0 C 0.092,-0.169 0.11,-0.32 0.056,-0.449 0.002,-0.578 -0.099,-0.684 -0.246,-0.764 -0.34,-0.815 -0.558,-0.88 -0.9,-0.957 c -0.341,-0.079 -0.69,-0.187 -1.044,-0.326 0.374,-0.168 0.763,-0.307 1.165,-0.416 0.4,-0.111 0.65,-0.252 0.746,-0.43 0.068,-0.125 0.072,-0.264 0.012,-0.416 -0.059,-0.152 -0.149,-0.26 -0.27,-0.326 -0.083,-0.046 -0.173,-0.064 -0.27,-0.055 -0.098,0.008 -0.197,0.041 -0.297,0.098 -0.089,0.06 -0.254,0.214 -0.491,0.467 -0.237,0.253 -0.504,0.5 -0.8,0.74 0.036,-0.363 0.096,-0.723 0.182,-1.078 0.085,-0.358 0.127,-0.578 0.124,-0.664 -0.009,-0.126 -0.033,-0.229 -0.072,-0.306 -0.038,-0.077 -0.105,-0.142 -0.2,-0.193 -0.124,-0.068 -0.265,-0.086 -0.42,-0.056 -0.156,0.03 -0.27,0.112 -0.341,0.244 -0.096,0.177 -0.081,0.464 0.047,0.861 0.126,0.396 0.221,0.798 0.285,1.205 -0.297,-0.211 -0.575,-0.442 -0.835,-0.693 -0.26,-0.251 -0.435,-0.401 -0.526,-0.451 -0.146,-0.079 -0.29,-0.106 -0.428,-0.082 -0.138,0.025 -0.253,0.124 -0.345,0.293 -0.084,0.155 -0.102,0.301 -0.051,0.438 0.05,0.138 0.149,0.247 0.296,0.327 0.117,0.063 0.326,0.126 0.626,0.19 0.302,0.062 0.656,0.175 1.066,0.34 -0.421,0.182 -0.822,0.325 -1.2,0.429 -0.38,0.105 -0.617,0.243 -0.711,0.417 -0.067,0.126 -0.072,0.264 -0.012,0.416 0.059,0.152 0.149,0.26 0.271,0.327 0.086,0.047 0.177,0.066 0.271,0.059 0.094,-0.007 0.192,-0.04 0.291,-0.098 0.09,-0.059 0.257,-0.215 0.498,-0.471 0.241,-0.255 0.506,-0.503 0.797,-0.74 -0.043,0.377 -0.106,0.737 -0.186,1.079 -0.08,0.344 -0.122,0.565 -0.123,0.668 0.002,0.103 0.027,0.199 0.074,0.288 0.047,0.09 0.114,0.158 0.201,0.205 0.124,0.068 0.265,0.087 0.42,0.056 0.156,-0.031 0.27,-0.111 0.342,-0.243 0.094,-0.174 0.085,-0.442 -0.024,-0.802 -0.11,-0.36 -0.211,-0.781 -0.303,-1.261 0.351,0.255 0.641,0.492 0.87,0.715 0.229,0.221 0.392,0.36 0.491,0.413 0.147,0.08 0.292,0.104 0.434,0.071 C -0.197,0.249 -0.085,0.155 0,0"
           style="fill:#ffffff;fill-opacity:1;fill-rule:nonzero;stroke:none"
           id="path82"
           transform="translate(19.4516,20.2141)" />
        <path
           d="M 0,0 C -0.102,0.297 -0.251,0.595 -0.45,0.893 -0.649,1.192 -0.919,1.528 -1.26,1.903 -1.567,2.241 -1.861,2.527 -2.143,2.764 -2.426,3.002 -2.705,3.186 -2.982,3.318 -3.268,3.453 -3.536,3.513 -3.79,3.497 -4.043,3.482 -4.276,3.377 -4.49,3.184 -4.706,2.988 -4.834,2.765 -4.876,2.517 -4.916,2.268 -4.886,1.995 -4.784,1.698 -4.691,1.429 -4.535,1.137 -4.318,0.82 c 0.218,-0.316 0.48,-0.641 0.786,-0.979 0.321,-0.353 0.611,-0.638 0.869,-0.855 0.26,-0.219 0.538,-0.401 0.835,-0.549 0.267,-0.135 0.534,-0.197 0.799,-0.189 0.265,0.009 0.507,0.113 0.727,0.312 0.204,0.185 0.329,0.402 0.374,0.653 C 0.118,-0.537 0.093,-0.275 0,0 M -1.884,4.774 C -1.412,4.74 -0.969,4.612 -0.556,4.391 -0.144,4.171 0.222,3.886 0.539,3.536 0.918,3.12 1.188,2.678 1.347,2.212 1.508,1.744 1.568,1.281 1.527,0.821 1.483,0.34 1.344,-0.124 1.109,-0.569 0.875,-1.014 0.531,-1.442 0.075,-1.855 -0.405,-2.291 -0.897,-2.601 -1.4,-2.786 -1.904,-2.97 -2.389,-3.05 -2.857,-3.028 c -0.461,0.022 -0.904,0.14 -1.328,0.353 -0.423,0.214 -0.805,0.509 -1.146,0.883 -0.338,0.372 -0.593,0.771 -0.762,1.197 -0.17,0.427 -0.248,0.881 -0.234,1.364 0.013,0.47 0.138,0.95 0.373,1.439 0.235,0.489 0.594,0.953 1.078,1.392 0.499,0.453 1.006,0.772 1.52,0.953 0.514,0.181 1.005,0.255 1.472,0.221"
           style="fill:#ffffff;fill-opacity:1;fill-rule:nonzero;stroke:none"
           id="path78"
           transform="translate(13.7507,9.7033998)" />
        <path
           d="m 0,0 4.611,-8.6 -0.525,-0.809 -3.991,7.782 -1.61,-2.477 c -0.204,-0.314 -0.361,-0.56 -0.473,-0.739 -0.11,-0.179 -0.18,-0.365 -0.207,-0.557 -0.024,-0.154 0.035,-0.336 0.177,-0.549 0.141,-0.213 0.337,-0.437 0.59,-0.672 l -0.257,-0.395 -2.663,1.732 3.705,5.703 z"
           style="fill:#ffffff;fill-opacity:1;fill-rule:nonzero;stroke:none"
           id="path74"
           transform="translate(4.8360003,7.8036003)" />
        <path
           d="M 0,0 6.42,-7.349 6.089,-8.256 0.458,-1.565 -0.556,-4.339 c -0.129,-0.352 -0.228,-0.627 -0.295,-0.827 -0.069,-0.198 -0.094,-0.395 -0.079,-0.588 0.012,-0.156 0.111,-0.322 0.296,-0.496 0.185,-0.176 0.427,-0.35 0.725,-0.524 l -0.161,-0.442 -2.985,1.093 2.335,6.387 z"
           style="fill:#ffffff;fill-opacity:1;fill-rule:nonzero;stroke:none"
           id="path70" />
      </g>
      <g
         id="g24"
         transform="translate(24.9061,33.596798)"
         style="display:inline;fill:#ffffff"
         inkscape:label="www">
        <path
           d="M 0,0 C -0.183,0.182 -0.423,0.363 -0.72,0.541 -1.018,0.72 -1.374,0.9 -1.793,1.081 -2.068,1.202 -2.392,1.319 -2.763,1.434 -3.135,1.549 -3.441,1.611 -3.68,1.622 -3.97,1.635 -4.221,1.59 -4.437,1.484 -4.651,1.378 -4.815,1.197 -4.926,0.941 -5.047,0.661 -5.068,0.404 -4.988,0.17 c 0.081,-0.234 0.224,-0.45 0.429,-0.646 0.188,-0.181 0.427,-0.353 0.714,-0.515 0.288,-0.163 0.595,-0.316 0.922,-0.458 0.429,-0.186 0.791,-0.327 1.085,-0.423 0.294,-0.095 0.605,-0.15 0.936,-0.168 0.283,-0.015 0.533,0.031 0.749,0.139 0.215,0.107 0.379,0.29 0.493,0.551 0.102,0.237 0.126,0.468 0.067,0.695 C 0.349,-0.429 0.214,-0.21 0,0 m -3.436,3.295 c 0.398,0.173 0.82,0.254 1.266,0.243 0.445,-0.011 0.888,-0.112 1.329,-0.304 0.437,-0.19 0.818,-0.446 1.14,-0.766 C 0.62,2.147 0.856,1.781 1.005,1.369 1.164,0.929 1.229,0.459 1.199,-0.04 1.168,-0.541 1.032,-1.068 0.79,-1.623 0.581,-2.104 0.319,-2.516 0.006,-2.86 c -0.314,-0.344 -0.677,-0.612 -1.088,-0.803 -0.395,-0.184 -0.823,-0.278 -1.287,-0.283 -0.464,-0.004 -0.936,0.098 -1.417,0.307 -0.472,0.206 -0.86,0.465 -1.162,0.777 -0.303,0.311 -0.531,0.682 -0.687,1.11 -0.149,0.411 -0.206,0.864 -0.171,1.358 0.034,0.493 0.166,1.004 0.396,1.532 0.241,0.551 0.528,1.003 0.862,1.358 0.335,0.353 0.705,0.619 1.112,0.799"
           style="fill:#ffffff;fill-opacity:1;fill-rule:nonzero;stroke:none"
           id="path66"
           transform="translate(68.960002,6.0939997)" />
        <path
           d="m 0,0 c -0.133,0.221 -0.321,0.455 -0.566,0.701 -0.245,0.246 -0.547,0.507 -0.907,0.786 -0.238,0.185 -0.523,0.377 -0.856,0.58 -0.332,0.202 -0.612,0.337 -0.842,0.406 -0.277,0.084 -0.533,0.1 -0.767,0.05 C -4.172,2.473 -4.374,2.338 -4.544,2.116 -4.731,1.875 -4.813,1.631 -4.791,1.383 c 0.021,-0.247 0.106,-0.49 0.257,-0.732 0.138,-0.221 0.328,-0.446 0.567,-0.674 0.238,-0.228 0.5,-0.451 0.782,-0.67 0.371,-0.285 0.687,-0.511 0.948,-0.675 0.262,-0.163 0.551,-0.294 0.866,-0.392 0.271,-0.083 0.524,-0.1 0.76,-0.048 0.235,0.052 0.439,0.19 0.612,0.414 0.158,0.205 0.235,0.424 0.234,0.658 C 0.234,-0.501 0.155,-0.256 0,0 m -2.527,4.036 c 0.428,0.071 0.857,0.047 1.285,-0.072 0.429,-0.12 0.834,-0.327 1.215,-0.62 C 0.35,3.052 0.657,2.71 0.89,2.321 1.124,1.932 1.263,1.519 1.308,1.083 1.355,0.617 1.304,0.145 1.152,-0.332 1.001,-0.81 0.74,-1.289 0.371,-1.769 0.051,-2.184 -0.303,-2.52 -0.691,-2.777 -1.079,-3.034 -1.495,-3.205 -1.94,-3.29 c -0.428,-0.082 -0.866,-0.07 -1.317,0.039 -0.45,0.109 -0.883,0.323 -1.297,0.644 -0.409,0.315 -0.721,0.661 -0.938,1.038 -0.218,0.377 -0.349,0.792 -0.395,1.245 -0.044,0.436 0.01,0.889 0.164,1.359 0.153,0.472 0.406,0.934 0.758,1.39 0.367,0.477 0.755,0.846 1.166,1.107 0.41,0.261 0.833,0.43 1.272,0.504"
           style="fill:#ffffff;fill-opacity:1;fill-rule:nonzero;stroke:none"
           id="path62"
           transform="translate(63.9762,-2.8746017)" />
        <path
           d="M 0,0 C 0.07,-0.081 0.134,-0.182 0.193,-0.302 0.251,-0.422 0.28,-0.541 0.28,-0.66 0.283,-0.801 0.259,-0.929 0.211,-1.043 0.164,-1.159 0.055,-1.29 -0.114,-1.436 -0.371,-1.658 -0.649,-1.743 -0.95,-1.69 c -0.3,0.052 -0.714,0.214 -1.24,0.487 -0.082,-0.167 -0.064,-0.402 0.053,-0.702 0.119,-0.301 0.506,-0.831 1.161,-1.591 l 0.333,-0.383 1.345,1.163 0.46,-0.532 -1.336,-1.155 2.9,-3.356 c 0.109,-0.126 0.224,-0.199 0.342,-0.219 0.119,-0.018 0.239,-0.004 0.362,0.045 0.1,0.042 0.224,0.105 0.372,0.191 0.148,0.084 0.276,0.166 0.385,0.244 L 4.495,-7.854 1.2,-10.705 0.893,-10.349 c 0.079,0.08 0.154,0.16 0.226,0.239 0.072,0.079 0.129,0.157 0.172,0.233 0.071,0.129 0.093,0.248 0.067,0.353 -0.025,0.105 -0.09,0.218 -0.193,0.339 l -2.937,3.4 -0.991,-0.857 -0.459,0.532 0.99,0.856 c -0.301,0.348 -0.541,0.727 -0.722,1.141 -0.182,0.413 -0.277,0.84 -0.287,1.279 -0.014,0.43 0.079,0.867 0.279,1.313 0.2,0.445 0.526,0.863 0.978,1.254 0.402,0.348 0.78,0.542 1.134,0.58 C -0.498,0.351 -0.214,0.247 0,0"
           style="fill:#ffffff;fill-opacity:1;fill-rule:nonzero;stroke:none"
           id="path58"
           transform="translate(55.465897,-1.4364992)" />
        <path
           d="m 0,0 c 0.184,-0.286 0.238,-0.601 0.161,-0.947 -0.076,-0.344 -0.259,-0.61 -0.548,-0.797 -0.293,-0.188 -0.612,-0.246 -0.957,-0.174 -0.345,0.071 -0.611,0.252 -0.797,0.541 -0.187,0.289 -0.241,0.607 -0.166,0.954 0.075,0.347 0.259,0.616 0.551,0.804 0.29,0.185 0.609,0.24 0.958,0.163 C -0.45,0.466 -0.184,0.285 0,0"
           style="fill:#ffffff;fill-opacity:1;fill-rule:nonzero;stroke:none"
           id="path54"
           transform="translate(54.029399,-12.698102)" />
        <path
           d="m 0,0 -0.993,-9.699 -0.891,-0.376 1.051,8.676 -2.723,-1.148 c -0.344,-0.145 -0.613,-0.261 -0.805,-0.346 -0.193,-0.086 -0.354,-0.201 -0.484,-0.344 -0.106,-0.115 -0.16,-0.299 -0.161,-0.554 -0.002,-0.255 0.035,-0.551 0.112,-0.887 L -5.328,-4.86 -6.565,-1.934 -0.3,0.707 Z"
           style="fill:#ffffff;fill-opacity:1;fill-rule:nonzero;stroke:none"
           id="path50"
           transform="translate(48.0506,-10.585599)" />
        <path
           d="m 0,0 -3.04,-9.277 -0.948,-0.18 2.876,8.263 -2.903,-0.548 c -0.368,-0.069 -0.655,-0.126 -0.86,-0.169 -0.206,-0.043 -0.388,-0.122 -0.547,-0.234 -0.127,-0.09 -0.219,-0.259 -0.275,-0.508 -0.056,-0.249 -0.082,-0.545 -0.08,-0.891 l -0.461,-0.086 -0.585,3.122 6.682,1.262 z"
           style="fill:#ffffff;fill-opacity:1;fill-rule:nonzero;stroke:none"
           id="path46"
           transform="translate(40.7521,-13.608497)" />
        <path
           d="m 0,0 -4.956,-8.403 -0.965,0.031 4.58,7.446 -2.954,0.092 c -0.373,0.011 -0.665,0.019 -0.876,0.021 -0.211,0.003 -0.405,-0.035 -0.584,-0.111 -0.143,-0.06 -0.27,-0.205 -0.378,-0.436 -0.108,-0.231 -0.197,-0.516 -0.268,-0.852 l -0.47,0.013 0.099,3.177 6.795,-0.211 z"
           style="fill:#ffffff;fill-opacity:1;fill-rule:nonzero;stroke:none"
           id="path42"
           transform="translate(32.9484,-15.028097)" />
        <path
           d="m 0,0 c -0.068,-0.333 -0.251,-0.595 -0.548,-0.789 -0.296,-0.192 -0.612,-0.255 -0.948,-0.184 -0.342,0.069 -0.61,0.251 -0.807,0.544 -0.196,0.293 -0.26,0.608 -0.191,0.945 0.07,0.336 0.253,0.602 0.55,0.797 0.297,0.196 0.615,0.258 0.956,0.188 C -0.651,1.431 -0.385,1.247 -0.19,0.947 0.005,0.648 0.068,0.332 0,0"
           style="fill:#ffffff;fill-opacity:1;fill-rule:nonzero;stroke:none"
           id="path38"
           transform="translate(23.22,-19.434197)" />
        <path
           d="M 0,0 C -0.193,0.056 -0.385,0.073 -0.579,0.052 -0.774,0.031 -0.982,-0.08 -1.203,-0.28 -1.785,-0.82 -2.253,-1.257 -2.606,-1.59 -2.96,-1.923 -3.464,-2.407 -4.118,-3.041 -4.255,-3.172 -4.432,-3.357 -4.649,-3.597 -4.867,-3.837 -5.043,-4.035 -5.177,-4.19 l -1.143,0.53 0.375,4.665 -3.227,-3.341 -1.126,0.524 c 0.1,1.246 0.173,2.216 0.219,2.907 0.047,0.692 0.104,1.606 0.173,2.745 0.014,0.216 -0.038,0.416 -0.159,0.599 -0.121,0.185 -0.265,0.33 -0.434,0.436 l 0.198,0.427 3.589,-1.666 -0.197,-0.427 C -7.047,3.259 -7.22,3.3 -7.427,3.335 -7.634,3.37 -7.758,3.344 -7.797,3.258 -7.815,3.219 -7.826,3.183 -7.829,3.149 -7.833,3.115 -7.842,3.054 -7.854,2.965 -7.891,2.612 -7.929,2.151 -7.97,1.583 -8.01,1.016 -8.056,0.355 -8.107,-0.4 l 3.086,3.25 1.159,-0.538 -0.367,-4.656 c 0.503,0.494 0.896,0.885 1.18,1.173 0.282,0.287 0.642,0.659 1.082,1.118 0.066,0.069 0.116,0.134 0.152,0.196 0.035,0.061 0.056,0.103 0.061,0.124 0.032,0.071 0.027,0.15 -0.017,0.239 C -1.814,0.595 -1.876,0.68 -1.958,0.76 -2.039,0.84 -2.12,0.911 -2.203,0.973 -2.285,1.035 -2.355,1.084 -2.415,1.121 l 0.199,0.427 2.414,-1.121 z"
           style="display:inline;fill:#ffffff;fill-opacity:1;fill-rule:nonzero;stroke:none"
           id="path34"
           transform="translate(20.1094,-14.183702)" />
        <path
           d="M 0,0 C -0.162,0.116 -0.338,0.196 -0.53,0.24 -0.72,0.284 -0.952,0.248 -1.228,0.131 -1.956,-0.187 -2.542,-0.445 -2.986,-0.643 -3.429,-0.841 -4.065,-1.131 -4.892,-1.515 -5.064,-1.593 -5.292,-1.71 -5.578,-1.864 -5.864,-2.019 -6.094,-2.148 -6.271,-2.25 l -0.906,0.876 1.892,4.278 -4.149,-2.09 -0.893,0.864 c 0.506,1.143 0.893,2.035 1.165,2.672 0.272,0.637 0.628,1.481 1.068,2.534 0.084,0.198 0.101,0.404 0.047,0.617 C -8.1,7.714 -8.189,7.899 -8.313,8.055 L -7.985,8.393 -5.143,5.639 -5.47,5.301 C -5.585,5.394 -5.734,5.49 -5.918,5.591 -6.101,5.691 -6.227,5.708 -6.292,5.64 -6.322,5.609 -6.345,5.578 -6.36,5.548 -6.374,5.517 -6.402,5.462 -6.444,5.383 -6.594,5.061 -6.782,4.639 -7.007,4.117 -7.233,3.594 -7.493,2.986 -7.791,2.291 l 3.987,2.051 0.918,-0.89 -1.882,-4.272 c 0.638,0.3 1.14,0.54 1.501,0.718 0.362,0.179 0.825,0.411 1.391,0.699 0.086,0.044 0.155,0.089 0.208,0.135 0.055,0.046 0.087,0.079 0.099,0.097 0.054,0.056 0.075,0.133 0.063,0.231 -0.012,0.099 -0.042,0.198 -0.093,0.302 -0.049,0.102 -0.104,0.195 -0.161,0.281 -0.058,0.086 -0.108,0.155 -0.151,0.209 L -1.582,2.19 0.329,0.337 Z"
           style="display:inline;fill:#ffffff;fill-opacity:1;fill-rule:nonzero;stroke:none"
           id="path30"
           transform="translate(8.8517998,-8.7913969)" />
        <path
           d="M 0,0 C -0.115,0.164 -0.255,0.298 -0.42,0.403 -0.586,0.508 -0.817,0.55 -1.115,0.531 -1.906,0.471 -2.543,0.421 -3.027,0.38 -3.511,0.34 -4.207,0.276 -5.114,0.187 -5.301,0.169 -5.556,0.135 -5.875,0.083 -6.196,0.031 -6.456,-0.015 -6.657,-0.053 L -7.22,1.075 -4.02,4.492 -8.623,3.888 -9.177,5 c 0.854,0.914 1.516,1.627 1.983,2.139 0.468,0.512 1.082,1.193 1.845,2.041 0.146,0.159 0.23,0.349 0.25,0.569 0.02,0.219 -0.002,0.422 -0.067,0.61 L -4.746,10.57 -2.979,7.029 -3.4,6.818 C -3.476,6.943 -3.585,7.083 -3.726,7.24 -3.866,7.395 -3.978,7.452 -4.062,7.41 -4.101,7.39 -4.132,7.369 -4.156,7.344 -4.181,7.321 -4.225,7.278 -4.29,7.216 -4.538,6.963 -4.856,6.626 -5.241,6.207 -5.627,5.788 -6.074,5.299 -6.585,4.741 l 4.438,0.62 0.57,-1.144 -3.189,-3.416 c 0.701,0.073 1.252,0.134 1.653,0.184 0.399,0.049 0.914,0.115 1.543,0.199 0.093,0.013 0.175,0.034 0.241,0.06 0.066,0.026 0.108,0.045 0.125,0.059 0.069,0.034 0.114,0.1 0.135,0.197 0.022,0.097 0.026,0.202 0.012,0.315 -0.013,0.114 -0.032,0.22 -0.058,0.32 -0.025,0.1 -0.05,0.182 -0.073,0.248 l 0.42,0.21 1.189,-2.382 z"
           style="display:inline;fill:#ffffff;fill-opacity:1;fill-rule:nonzero;stroke:none"
           id="path26" />
      </g>
    </g>
    <g
       inkscape:groupmode="layer"
       id="layer2"
       inkscape:label="logo"
       transform="matrix(0.75000002,0,0,-0.75000002,-64.6098,50.2607)">
      <g
         id="g160"
         transform="matrix(1.3333333,0,0,-1.3333333,86.146398,67.014265)"
         inkscape:label="777">
        <g
           inkscape:groupmode="layer"
           id="layer6"
           inkscape:label="l"
           transform="matrix(0.75000002,0,0,-0.75000002,-64.6098,50.2607)">
          <path
             d="M 0,0 C 0.278,0.086 0.573,0.16 0.86,0.242 1.199,1.823 1.854,2.805 2.952,3.728 L 2.956,3.731 8.677,8.805 7.899,9.559 7.545,9.9 7.294,9.481 C 7.291,9.476 6.939,8.917 6.009,8.482 5.113,8.062 3.488,7.673 0.842,8.201 0.775,8.215 0.686,8.223 0.514,8.237 0.346,8.25 0.08,8.265 -0.227,8.26 -1.032,8.246 -1.708,8.106 -2.238,7.846 -3.082,7.431 -3.524,6.713 -3.523,5.765 c -0.2,-0.047 -2.329,-0.55 -2.541,-0.6 -0.058,0.257 -1.03,4.576 -1.225,5.439 -0.017,0.076 0.022,0.149 0.086,0.164 l 1.797,0.415 c 0.061,-0.244 0.479,-1.898 0.479,-1.898 0,0 0.49,0.562 0.491,0.562 0.033,0.039 3.406,3.839 7.32,3.278 0.071,-0.012 1.754,-0.288 3.765,-0.172 2.569,0.148 4.47,0.85 5.661,2.082 0.112,-0.089 2.241,-1.769 2.497,-1.971 C 14.053,12.385 12.464,10.788 11.27,8.441 10.344,6.622 9.861,4.736 9.832,2.837 9.826,2.454 9.826,2.316 9.858,1.93 c 0.261,0.031 0.523,0.057 0.785,0.085 -0.027,0.343 -0.027,0.44 -0.022,0.781 0.024,1.769 0.473,3.531 1.336,5.235 1.484,2.931 3.703,4.701 3.725,4.719 l 0.406,0.32 -0.411,0.324 -3.47,2.739 -0.241,-0.291 C 9.505,12.87 3.061,13.917 2.996,13.928 l -0.009,10e-4 c -1.804,0.259 -3.765,-0.273 -5.669,-1.538 -0.806,-0.535 -1.439,-1.09 -1.843,-1.48 -0.107,0.422 -0.313,1.238 -0.313,1.238 L -8.266,11.358 -6.652,4.19 -2.68,5.128 -2.72,5.485 c -0.063,0.566 0.058,0.993 0.37,1.307 0.749,0.752 2.466,0.695 3.067,0.609 C 2.916,6.965 4.752,7.056 6.18,7.67 4.592,6.262 2.44,4.353 2.44,4.353 L 2.447,4.36 C 1.128,3.251 0.337,1.957 0,0"
             style="display:inline;fill:#000000;fill-opacity:1;fill-rule:nonzero;stroke:none"
             id="path122"
             transform="matrix(1.3333333,0,0,-1.3333333,44.350932,83.947198)" />
          <path
             d="m 0,0 c 0.028,1.899 0.512,3.785 1.437,5.604 1.194,2.347 2.784,3.945 3.538,4.623 -0.256,0.202 -2.385,1.882 -2.498,1.971 -1.19,-1.232 -3.091,-1.934 -5.66,-2.082 -2.011,-0.116 -3.694,0.16 -3.765,0.172 -3.914,0.561 -7.287,-3.239 -7.321,-3.278 0,0 -0.49,-0.562 -0.49,-0.562 0,0 -0.418,1.654 -0.48,1.898 l -1.796,-0.415 c -0.064,-0.015 -0.103,-0.088 -0.086,-0.164 0.194,-0.863 1.167,-5.182 1.225,-5.439 0.212,0.05 2.341,0.553 2.541,0.6 -10e-4,0.948 0.441,1.666 1.285,2.081 0.53,0.26 1.206,0.4 2.011,0.414 0.307,0.005 0.573,-0.01 0.741,-0.023 0.172,-0.014 0.261,-0.022 0.327,-0.036 2.647,-0.528 4.272,-0.139 5.168,0.281 0.93,0.435 1.282,0.994 1.285,0.999 L -2.287,7.063 -1.933,6.722 -1.155,5.968 -6.877,0.894 -6.881,0.891 c -1.097,-0.923 -1.817,-2.185 -2.156,-3.766 2.731,0.776 5.862,1.339 9.082,1.72 C 0.013,-0.769 -0.006,-0.383 0,0"
             style="fill:#ffffff;fill-opacity:1;fill-rule:nonzero;stroke:none"
             id="path126"
             transform="matrix(1.3333333,0,0,-1.3333333,57.460399,80.164532)" />
          <path
             d="M 0,0 C 0.278,0.086 0.573,0.16 0.86,0.242 1.199,1.823 1.854,2.805 2.952,3.728 L 2.956,3.731 8.677,8.805 7.899,9.559 7.545,9.9 7.294,9.481 C 7.291,9.476 6.939,8.917 6.009,8.482 5.113,8.062 3.488,7.673 0.842,8.201 0.775,8.215 0.686,8.223 0.514,8.237 0.346,8.25 0.08,8.265 -0.227,8.26 -1.032,8.246 -1.708,8.106 -2.238,7.846 -3.082,7.431 -3.524,6.713 -3.523,5.765 c -0.2,-0.047 -2.329,-0.55 -2.541,-0.6 -0.058,0.257 -1.03,4.576 -1.225,5.439 -0.017,0.076 0.022,0.149 0.086,0.164 l 1.797,0.415 c 0.061,-0.244 0.479,-1.898 0.479,-1.898 0,0 0.49,0.562 0.491,0.562 0.033,0.039 3.406,3.839 7.32,3.278 0.071,-0.012 1.754,-0.288 3.765,-0.172 2.569,0.148 4.47,0.85 5.661,2.082 0.112,-0.089 2.241,-1.769 2.497,-1.971 C 14.053,12.385 12.464,10.788 11.27,8.441 10.344,6.622 9.861,4.736 9.832,2.837 9.826,2.454 9.826,2.316 9.858,1.93 c 0.261,0.031 0.523,0.057 0.785,0.085 -0.027,0.343 -0.027,0.44 -0.022,0.781 0.024,1.769 0.473,3.531 1.336,5.235 1.484,2.931 3.703,4.701 3.725,4.719 l 0.406,0.32 -0.411,0.324 -3.47,2.739 -0.241,-0.291 C 9.505,12.87 3.061,13.917 2.996,13.928 l -0.009,10e-4 c -1.804,0.259 -3.765,-0.273 -5.669,-1.538 -0.806,-0.535 -1.439,-1.09 -1.843,-1.48 -0.107,0.422 -0.313,1.238 -0.313,1.238 L -8.266,11.358 -6.652,4.19 -2.68,5.128 -2.72,5.485 c -0.063,0.566 0.058,0.993 0.37,1.307 0.749,0.752 2.466,0.695 3.067,0.609 C 2.916,6.965 4.752,7.056 6.18,7.67 4.592,6.262 2.44,4.353 2.44,4.353 L 2.447,4.36 C 1.128,3.251 0.337,1.957 0,0"
             style="fill:#000000;fill-opacity:1;fill-rule:nonzero;stroke:none"
             id="path130"
             transform="matrix(1.3333333,0,0,-1.3333333,44.350932,83.947198)" />
          <path
             d="m 0,0 c 0.028,1.899 0.512,3.785 1.437,5.604 1.194,2.347 2.784,3.945 3.538,4.623 -0.256,0.202 -2.385,1.882 -2.498,1.971 -1.19,-1.232 -3.091,-1.934 -5.66,-2.082 -2.011,-0.116 -3.694,0.16 -3.765,0.172 -3.914,0.561 -7.287,-3.239 -7.321,-3.278 0,0 -0.49,-0.562 -0.49,-0.562 0,0 -0.418,1.654 -0.48,1.898 l -1.796,-0.415 c -0.064,-0.015 -0.103,-0.088 -0.086,-0.164 0.194,-0.863 1.167,-5.182 1.225,-5.439 0.212,0.05 2.341,0.553 2.541,0.6 -10e-4,0.948 0.441,1.666 1.285,2.081 0.53,0.26 1.206,0.4 2.011,0.414 0.307,0.005 0.573,-0.01 0.741,-0.023 0.172,-0.014 0.261,-0.022 0.327,-0.036 2.647,-0.528 4.272,-0.139 5.168,0.281 0.93,0.435 1.282,0.994 1.285,0.999 L -2.287,7.063 -1.933,6.722 -1.155,5.968 -6.877,0.894 -6.881,0.891 c -1.097,-0.923 -1.817,-2.185 -2.156,-3.766 2.731,0.776 5.862,1.339 9.082,1.72 C 0.013,-0.769 -0.006,-0.383 0,0"
             style="fill:#ffffff;fill-opacity:1;fill-rule:nonzero;stroke:none"
             id="path134"
             transform="matrix(1.3333333,0,0,-1.3333333,57.460399,80.164532)" />
          <path
             d="m 0,0 c 0.028,1.899 0.512,3.785 1.437,5.604 1.194,2.347 2.784,3.945 3.538,4.623 -0.256,0.202 -2.385,1.882 -2.498,1.971 -1.19,-1.232 -3.091,-1.934 -5.66,-2.082 -2.011,-0.116 -3.694,0.16 -3.765,0.172 -3.914,0.561 -7.287,-3.239 -7.321,-3.278 0,0 -0.49,-0.562 -0.49,-0.562 0,0 -0.418,1.654 -0.48,1.898 l -1.796,-0.415 c -0.064,-0.015 -0.103,-0.088 -0.086,-0.164 0.194,-0.863 1.167,-5.182 1.225,-5.439 0.212,0.05 2.341,0.553 2.541,0.6 -10e-4,0.948 0.441,1.666 1.285,2.081 0.53,0.26 1.206,0.4 2.011,0.414 0.307,0.005 0.573,-0.01 0.741,-0.023 0.172,-0.014 0.261,-0.022 0.327,-0.036 2.647,-0.528 4.272,-0.139 5.168,0.281 0.93,0.435 1.282,0.994 1.285,0.999 L -2.287,7.063 -1.933,6.722 -1.155,5.968 -6.877,0.894 -6.881,0.891 c -1.097,-0.923 -1.817,-2.185 -2.156,-3.766 2.731,0.776 5.862,1.339 9.082,1.72 C 0.013,-0.769 -0.006,-0.383 0,0 Z"
             style="fill:#000000;stroke:#ffffff;stroke-width:0.5;stroke-linecap:butt;stroke-linejoin:miter;stroke-miterlimit:10;stroke-dasharray:none;stroke-opacity:1"
             id="path138"
             transform="matrix(1.3333333,0,0,-1.3333333,57.460399,80.164532)" />
        </g>
        <g
           inkscape:groupmode="layer"
           id="layer5"
           inkscape:label="r"
           transform="matrix(0.75000002,0,0,-0.75000002,-64.6098,50.2607)">
          <path
             d="M 0,0 0.005,0.001 7.371,2.053 7.004,3.072 6.834,3.534 6.426,3.268 C 6.42,3.264 5.858,2.916 4.833,2.933 3.843,2.949 2.212,3.311 0.065,4.946 0.011,4.988 -0.065,5.034 -0.214,5.122 -0.359,5.207 -0.591,5.337 -0.87,5.467 -1.599,5.807 -2.269,5.978 -2.859,5.977 -3.799,5.974 -4.511,5.522 -4.926,4.67 -5.127,4.715 -7.26,5.196 -7.473,5.244 c 0.061,0.257 1.08,4.565 1.283,5.425 0.018,0.076 0.085,0.125 0.15,0.11 l 1.796,-0.414 c -0.051,-0.247 -0.401,-1.916 -0.401,-1.916 0,0 0.687,0.29 0.687,0.29 0.048,0.02 4.745,1.957 8.017,-0.263 C 4.118,8.434 5.51,7.448 7.368,6.671 9.741,5.678 11.757,5.476 13.368,6.061 13.43,5.932 14.607,3.488 14.749,3.194 13.773,2.915 11.644,2.176 9.542,0.59 7.913,-0.64 6.652,-2.122 5.794,-3.817 5.717,-3.968 5.744,-3.912 5.673,-4.068 c 0.235,-0.097 0.441,-0.184 0.733,-0.308 0.04,0.094 0.033,0.082 0.079,0.177 0.772,1.592 1.973,2.965 3.496,4.119 2.618,1.984 5.388,2.602 5.416,2.608 L 15.902,2.638 15.675,3.11 13.757,7.093 13.413,6.937 C 9.898,5.344 4.565,9.11 4.511,9.148 L 4.504,9.154 c -1.508,1.023 -3.503,1.405 -5.77,1.102 -0.958,-0.127 -1.771,-0.349 -2.305,-0.522 0.089,0.426 0.262,1.25 0.262,1.25 l -3.428,0.791 -1.692,-7.15 3.981,-0.897 0.121,0.338 c 0.191,0.536 0.487,0.867 0.905,1.012 1.003,0.348 2.521,-0.456 3.024,-0.797 C 1.388,2.925 3.077,2.203 4.63,2.128 2.585,1.559 -0.186,0.786 -0.186,0.786 l 0.01,0.003 C -1.949,0.346 -3.319,-0.584 -4.512,-2.365 -4.214,-2.394 -3.897,-2.421 -3.599,-2.453 -2.566,-1.039 -1.479,-0.37 0,0"
             style="fill:#000000;fill-opacity:1;fill-rule:nonzero;stroke:none"
             id="path142"
             transform="matrix(1.3333333,0,0,-1.3333333,92.868798,78.120665)" />
          <path
             d="M 0,0 C 2.102,1.586 4.231,2.325 5.206,2.605 5.065,2.899 3.888,5.342 3.826,5.471 2.215,4.886 0.199,5.088 -2.175,6.081 c -1.858,0.777 -3.25,1.764 -3.308,1.805 -3.272,2.22 -7.97,0.283 -8.017,0.263 0,0 -0.687,-0.29 -0.687,-0.29 0,0 0.349,1.67 0.401,1.916 l -1.796,0.415 c -0.065,0.015 -0.132,-0.035 -0.15,-0.11 -0.203,-0.861 -1.222,-5.169 -1.283,-5.426 0.212,-0.048 2.346,-0.529 2.547,-0.574 0.414,0.852 1.126,1.304 2.067,1.307 0.59,0.002 1.259,-0.17 1.989,-0.51 0.278,-0.13 0.51,-0.259 0.656,-0.345 0.149,-0.088 0.225,-0.134 0.278,-0.176 2.147,-1.634 3.778,-1.997 4.768,-2.013 1.026,-0.017 1.588,0.331 1.593,0.335 l 0.409,0.266 0.169,-0.461 0.368,-1.019 -7.366,-2.053 -0.005,-0.001 c -1.479,-0.369 -2.742,-1.272 -3.776,-2.686 3.242,-0.35 6.472,-0.866 9.353,-1.594 0.07,0.156 0.14,0.312 0.216,0.464 C -2.89,-2.712 -1.629,-1.229 0,0"
             style="fill:#ffffff;fill-opacity:1;fill-rule:nonzero;stroke:none"
             id="path146"
             transform="matrix(1.3333333,0,0,-1.3333333,105.59186,77.334265)" />
          <path
             d="M 0,0 C 2.102,1.586 4.231,2.325 5.206,2.605 5.065,2.899 3.888,5.342 3.826,5.471 2.215,4.886 0.199,5.088 -2.175,6.081 c -1.858,0.777 -3.25,1.764 -3.308,1.805 -3.272,2.22 -7.97,0.283 -8.017,0.263 0,0 -0.687,-0.29 -0.687,-0.29 0,0 0.349,1.67 0.401,1.916 l -1.796,0.415 c -0.065,0.015 -0.132,-0.035 -0.15,-0.11 -0.203,-0.861 -1.222,-5.169 -1.283,-5.426 0.212,-0.048 2.346,-0.529 2.547,-0.574 0.414,0.852 1.126,1.304 2.067,1.307 0.59,0.002 1.259,-0.17 1.989,-0.51 0.278,-0.13 0.51,-0.259 0.656,-0.345 0.149,-0.088 0.225,-0.134 0.278,-0.176 2.147,-1.634 3.778,-1.997 4.768,-2.013 1.026,-0.017 1.588,0.331 1.593,0.335 l 0.409,0.266 0.169,-0.461 0.368,-1.019 -7.366,-2.053 -0.005,-0.001 c -1.479,-0.369 -2.742,-1.272 -3.776,-2.686 3.242,-0.35 6.472,-0.866 9.353,-1.594 0.07,0.156 0.14,0.312 0.216,0.464 C -2.89,-2.712 -1.629,-1.229 0,0 Z"
             style="fill:#000000;stroke:#ffffff;stroke-width:0.5;stroke-linecap:butt;stroke-linejoin:miter;stroke-miterlimit:10;stroke-dasharray:none;stroke-opacity:1"
             id="path150"
             transform="matrix(1.3333333,0,0,-1.3333333,105.59186,77.334265)" />
        </g>
        <g
           inkscape:groupmode="layer"
           id="layer4"
           inkscape:label="m"
           transform="matrix(0.75000002,0,0,-0.75000002,-64.6098,50.2607)">
          <path
             d="M 0,0 0.006,0.003 8.961,4.879 8.177,6.092 7.819,6.641 7.368,6.173 C 7.362,6.166 6.736,5.545 5.399,5.26 4.108,4.984 1.88,4.965 -1.4,6.444 -1.482,6.483 -1.594,6.52 -1.814,6.59 -2.029,6.658 -2.369,6.756 -2.77,6.841 -3.82,7.064 -4.74,7.087 -5.507,6.907 -6.728,6.622 -7.517,5.821 -7.8,4.589 -8.075,4.588 -10.991,4.573 -11.281,4.571 c 0.002,0.38 0.039,7.247 0.041,7.622 h 2.618 c 0.007,-0.336 0.054,-2.61 0.054,-2.61 0,0 0.805,0.584 0.805,0.584 0.056,0.04 5.578,3.965 10.494,2.062 0.089,-0.036 2.193,-0.9 4.84,-1.353 3.381,-0.578 6.061,-0.236 7.978,1.008 0.12,-0.15 2.382,-2.971 2.654,-3.31 C 17.019,7.918 14.475,6.32 12.22,3.628 10.472,1.543 9.278,-0.762 8.672,-3.221 8.375,-4.423 8.229,-5.354 8.216,-6.629 c 0.347,-0.02 0.695,-0.077 1.046,-0.101 0.008,1.203 0.144,2.086 0.422,3.22 0.562,2.291 1.674,4.444 3.307,6.4 2.806,3.363 6.22,4.997 6.254,5.013 l 0.624,0.294 -0.437,0.545 -3.687,4.599 -0.4,-0.306 C 11.256,9.911 3.198,13.204 3.117,13.238 l -0.011,0.005 c -2.267,0.877 -4.973,0.774 -7.827,-0.298 -1.207,-0.453 -2.195,-0.985 -2.838,-1.369 -0.012,0.579 -0.035,1.701 -0.035,1.701 h -4.691 l -0.052,-9.796 5.44,0.028 0.056,0.475 c 0.087,0.754 0.373,1.273 0.873,1.587 1.198,0.753 3.411,0.163 4.167,-0.129 C 0.925,4.216 3.337,3.785 5.377,4.154 2.891,2.8 -0.478,0.966 -0.478,0.966 l 0.013,0.006 c -2.751,-1.403 -4.582,-3.893 -5.436,-7.747 0.366,0.029 0.748,0.095 1.113,0.12 0.817,3.4 2.37,5.421 4.788,6.655"
             style="fill:#000000;fill-opacity:1;fill-rule:nonzero;stroke:none"
             id="path154"
             transform="matrix(1.3333333,0,0,-1.3333333,69.852932,71.851999)" />
          <path
             d="M 0,0 C 2.255,2.691 4.799,4.29 5.983,4.945 5.711,5.285 3.449,8.106 3.329,8.255 1.412,7.012 -1.268,6.67 -4.649,7.248 -7.296,7.701 -9.4,8.564 -9.489,8.601 c -4.916,1.903 -10.439,-2.023 -10.494,-2.063 0,0 -0.805,-0.583 -0.805,-0.583 0,0 -0.047,2.274 -0.054,2.609 h -2.618 c -0.002,-0.374 -0.039,-7.241 -0.041,-7.621 0.29,0.001 3.206,0.016 3.481,0.018 0.283,1.232 1.072,2.032 2.293,2.318 0.766,0.179 1.687,0.157 2.737,-0.066 0.401,-0.085 0.741,-0.184 0.956,-0.252 0.22,-0.069 0.332,-0.106 0.414,-0.145 3.28,-1.479 5.508,-1.461 6.799,-1.185 1.337,0.286 1.963,0.907 1.969,0.913 l 0.451,0.469 0.358,-0.549 0.783,-1.214 -8.954,-4.875 -0.006,-0.003 c -2.418,-1.234 -4.053,-3.583 -4.87,-6.982 2.683,0.184 5.328,0.253 7.756,0.221 1.665,-0.022 3.463,-0.082 5.323,-0.191 0.014,1.274 0.166,2.529 0.463,3.731 C -2.942,-4.39 -1.748,-2.086 0,0"
             style="fill:#ffffff;fill-opacity:1;fill-rule:nonzero;stroke:none"
             id="path158"
             transform="matrix(1.3333333,0,0,-1.3333333,86.146398,67.014265)" />
          <path
             d="M 0,0 C 2.255,2.691 4.799,4.29 5.983,4.945 5.711,5.285 3.449,8.106 3.329,8.255 1.412,7.012 -1.268,6.67 -4.649,7.248 -7.296,7.701 -9.4,8.564 -9.489,8.601 c -4.916,1.903 -10.439,-2.023 -10.494,-2.063 0,0 -0.805,-0.583 -0.805,-0.583 0,0 -0.047,2.274 -0.054,2.609 h -2.618 c -0.002,-0.374 -0.039,-7.241 -0.041,-7.621 0.29,0.001 3.206,0.016 3.481,0.018 0.283,1.232 1.072,2.032 2.293,2.318 0.766,0.179 1.687,0.157 2.737,-0.066 0.401,-0.085 0.741,-0.184 0.956,-0.252 0.22,-0.069 0.332,-0.106 0.414,-0.145 3.28,-1.479 5.508,-1.461 6.799,-1.185 1.337,0.286 1.963,0.907 1.969,0.913 l 0.451,0.469 0.358,-0.549 0.783,-1.214 -8.954,-4.875 -0.006,-0.003 c -2.418,-1.234 -4.053,-3.583 -4.87,-6.982 2.683,0.184 5.328,0.253 7.756,0.221 1.665,-0.022 3.463,-0.082 5.323,-0.191 0.014,1.274 0.166,2.529 0.463,3.731 C -2.942,-4.39 -1.748,-2.086 0,0 Z"
             style="fill:#000000;stroke:#ffffff;stroke-width:0.75;stroke-linecap:butt;stroke-linejoin:miter;stroke-miterlimit:10;stroke-dasharray:none;stroke-opacity:1"
             id="path162"
             transform="matrix(1.3333333,0,0,-1.3333333,86.146398,67.014265)" />
        </g>
      </g>
      <g
         id="g164"
         transform="matrix(1.3333333,0,0,-1.3333333,52.161999,92.377331)"
         inkscape:label="s"
         style="fill:#000000">
        <path
           d="M 0,0 C -0.031,0.149 -0.062,0.298 -0.093,0.447 12.135,2.98 24.752,2.98 36.979,0.447 36.949,0.298 36.918,0.149 36.887,0 24.72,2.52 12.167,2.52 0,0"
           style="display:inline;fill:#000000;fill-opacity:1;fill-rule:nonzero;stroke:none"
           id="path202"
           transform="translate(-2.2893001,-1.2117)"
           inkscape:label="ul" />
        <path
           d="m 0,0 c -0.238,0.044 -0.465,0.121 -0.68,0.231 -0.215,0.11 -0.379,0.215 -0.492,0.315 -0.051,-0.077 -0.102,-0.154 -0.153,-0.232 -0.096,0.017 -0.192,0.033 -0.288,0.049 0.06,0.461 0.12,0.923 0.18,1.385 C -1.342,1.733 -1.251,1.718 -1.16,1.702 -1.141,1.585 -1.1,1.45 -1.036,1.296 -0.973,1.142 -0.895,1 -0.803,0.87 -0.706,0.739 -0.589,0.623 -0.453,0.52 -0.317,0.417 -0.165,0.35 0.005,0.319 0.23,0.277 0.405,0.29 0.531,0.356 0.657,0.422 0.738,0.546 0.773,0.727 0.791,0.825 0.782,0.91 0.745,0.984 0.707,1.057 0.649,1.125 0.571,1.188 0.483,1.255 0.384,1.317 0.275,1.373 0.165,1.429 0.03,1.496 -0.131,1.576 -0.292,1.656 -0.429,1.731 -0.542,1.803 -0.654,1.875 -0.766,1.976 -0.878,2.106 -0.975,2.222 -1.046,2.353 -1.091,2.499 -1.137,2.646 -1.144,2.813 -1.113,3 c 0.058,0.347 0.255,0.603 0.595,0.765 0.34,0.162 0.757,0.198 1.249,0.108 C 0.964,3.83 1.174,3.766 1.361,3.684 1.548,3.601 1.703,3.519 1.825,3.439 1.866,3.506 1.907,3.573 1.948,3.64 2.045,3.62 2.142,3.601 2.239,3.581 2.176,3.16 2.112,2.739 2.048,2.318 1.959,2.336 1.871,2.354 1.783,2.371 1.745,2.643 1.637,2.893 1.457,3.12 1.276,3.347 1.06,3.484 0.81,3.531 0.614,3.567 0.452,3.556 0.326,3.498 0.199,3.44 0.124,3.341 0.098,3.2 0.065,3.014 0.123,2.864 0.27,2.751 0.418,2.638 0.631,2.518 0.909,2.389 1.338,2.19 1.636,1.971 1.805,1.735 1.974,1.499 2.026,1.23 1.965,0.93 1.883,0.529 1.66,0.251 1.301,0.094 0.94,-0.064 0.508,-0.094 0,0"
           style="display:inline;fill:#000000;fill-opacity:1;fill-rule:nonzero;stroke:none"
           id="path198"
           transform="translate(32.809,-0.072)"
           inkscape:label="s" />
        <path
           d="m 0,0 c -0.741,0.12 -1.483,0.23 -2.227,0.331 0.013,0.09 0.025,0.181 0.037,0.271 0.048,-0.002 0.106,-0.003 0.174,-0.005 0.068,-0.002 0.12,0.003 0.158,0.016 0.056,0.02 0.099,0.054 0.128,0.103 0.03,0.049 0.052,0.123 0.066,0.225 0.082,0.578 0.164,1.156 0.246,1.734 0.035,0.252 0.014,0.448 -0.064,0.589 -0.078,0.141 -0.211,0.224 -0.399,0.25 -0.102,0.014 -0.2,0.011 -0.292,-0.007 C -2.266,3.489 -2.358,3.457 -2.45,3.411 -2.531,3.372 -2.597,3.329 -2.648,3.282 -2.7,3.236 -2.743,3.195 -2.779,3.159 -2.863,2.495 -2.947,1.83 -3.031,1.165 -3.042,1.078 -3.038,1.004 -3.021,0.943 c 0.018,-0.061 0.053,-0.11 0.107,-0.147 0.037,-0.028 0.084,-0.054 0.141,-0.079 0.058,-0.025 0.114,-0.045 0.17,-0.06 -0.012,-0.09 -0.023,-0.18 -0.035,-0.271 -0.753,0.099 -1.506,0.189 -2.26,0.269 0.01,0.091 0.02,0.181 0.029,0.272 0.063,-0.002 0.127,-0.002 0.191,0 0.064,0.002 0.12,0.008 0.166,0.018 0.083,0.018 0.142,0.054 0.178,0.108 0.037,0.054 0.06,0.126 0.071,0.218 0.081,0.721 0.162,1.443 0.243,2.164 0.009,0.077 -0.003,0.155 -0.035,0.234 -0.033,0.079 -0.08,0.146 -0.142,0.2 -0.043,0.035 -0.098,0.067 -0.167,0.094 -0.069,0.028 -0.145,0.05 -0.229,0.066 0.01,0.091 0.019,0.181 0.029,0.272 0.618,-0.033 1.237,-0.072 1.855,-0.117 0.017,-0.021 0.034,-0.042 0.051,-0.063 -0.022,-0.18 -0.045,-0.359 -0.068,-0.539 0.006,0 0.011,-10e-4 0.016,-10e-4 0.079,0.052 0.176,0.115 0.29,0.189 0.114,0.073 0.218,0.131 0.313,0.174 0.102,0.047 0.234,0.081 0.394,0.102 C -1.552,4.067 -1.385,4.065 -1.21,4.04 -0.79,3.981 -0.492,3.819 -0.318,3.559 -0.144,3.3 -0.087,2.981 -0.146,2.604 -0.239,1.999 -0.333,1.395 -0.427,0.791 -0.441,0.7 -0.439,0.625 -0.42,0.567 -0.401,0.508 -0.357,0.457 -0.288,0.413 -0.251,0.39 -0.205,0.365 -0.149,0.339 -0.094,0.312 -0.029,0.289 0.043,0.27 0.029,0.18 0.014,0.09 0,0"
           style="fill:#000000;fill-opacity:1;fill-rule:nonzero;stroke:none"
           id="path194"
           transform="translate(30.7783,0.40839976)"
           inkscape:label="n" />
        <path
           d="M 0,0 C 0.067,0.135 0.122,0.3 0.166,0.497 0.209,0.693 0.242,0.923 0.265,1.187 0.28,1.361 0.284,1.561 0.278,1.787 0.272,2.013 0.248,2.193 0.208,2.326 0.16,2.488 0.085,2.618 -0.018,2.717 -0.12,2.815 -0.255,2.871 -0.423,2.884 -0.606,2.898 -0.756,2.861 -0.872,2.772 -0.989,2.683 -1.082,2.563 -1.152,2.413 -1.216,2.274 -1.264,2.111 -1.298,1.922 -1.332,1.733 -1.355,1.535 -1.37,1.329 -1.388,1.057 -1.395,0.832 -1.389,0.653 c 0.005,-0.18 0.035,-0.361 0.09,-0.545 0.047,-0.158 0.121,-0.286 0.222,-0.384 0.1,-0.097 0.233,-0.152 0.397,-0.165 0.149,-0.011 0.281,0.02 0.395,0.095 C -0.171,-0.272 -0.076,-0.156 0,0 M 1.206,2.496 C 1.38,2.306 1.504,2.087 1.58,1.839 1.656,1.591 1.679,1.327 1.651,1.05 1.623,0.774 1.548,0.519 1.427,0.284 1.306,0.049 1.145,-0.146 0.944,-0.303 0.729,-0.47 0.481,-0.591 0.201,-0.667 -0.08,-0.743 -0.394,-0.766 -0.744,-0.74 c -0.303,0.024 -0.578,0.087 -0.827,0.192 -0.249,0.104 -0.467,0.249 -0.654,0.435 -0.179,0.178 -0.318,0.393 -0.415,0.645 -0.097,0.251 -0.138,0.529 -0.122,0.833 0.016,0.299 0.079,0.562 0.191,0.79 0.111,0.227 0.271,0.426 0.48,0.596 0.202,0.163 0.446,0.284 0.733,0.36 0.287,0.077 0.604,0.103 0.951,0.076 C -0.044,3.159 0.271,3.084 0.537,2.965 0.804,2.845 1.027,2.688 1.206,2.496"
           style="fill:#000000;fill-opacity:1;fill-rule:nonzero;stroke:none"
           id="path190"
           transform="translate(23.9386,1.9293998)"
           inkscape:label="o" />
        <path
           d="m 0,0 c -0.008,-0.19 -0.092,-0.348 -0.25,-0.475 -0.159,-0.127 -0.342,-0.186 -0.551,-0.179 -0.211,0.007 -0.391,0.08 -0.54,0.218 -0.148,0.138 -0.221,0.302 -0.216,0.491 0.006,0.189 0.087,0.35 0.245,0.48 0.159,0.13 0.346,0.191 0.56,0.184 C -0.538,0.711 -0.356,0.637 -0.208,0.496 -0.061,0.355 0.008,0.189 0,0 m 0.323,-5.126 c -0.786,0.039 -1.572,0.068 -2.359,0.087 0.002,0.091 0.004,0.182 0.006,0.273 0.065,0.003 0.129,0.008 0.192,0.014 0.062,0.006 0.116,0.017 0.162,0.033 0.081,0.027 0.138,0.069 0.172,0.124 0.035,0.055 0.053,0.129 0.056,0.221 0.021,0.726 0.043,1.452 0.065,2.177 0.002,0.088 -0.016,0.165 -0.055,0.232 -0.039,0.068 -0.089,0.122 -0.15,0.164 -0.046,0.031 -0.115,0.062 -0.209,0.092 -0.093,0.029 -0.179,0.049 -0.256,0.058 0.002,0.091 0.004,0.182 0.006,0.273 0.635,0.018 1.271,0.03 1.907,0.035 0.019,-0.019 0.037,-0.039 0.056,-0.058 -0.043,-0.99 -0.086,-1.98 -0.128,-2.969 -0.004,-0.088 0.012,-0.163 0.046,-0.225 0.035,-0.063 0.087,-0.111 0.155,-0.144 0.049,-0.024 0.103,-0.047 0.163,-0.067 0.058,-0.02 0.12,-0.036 0.185,-0.047 C 0.332,-4.944 0.328,-5.035 0.323,-5.126"
           style="fill:#000000;fill-opacity:1;fill-rule:nonzero;stroke:none"
           id="path186"
           transform="translate(20.3624,6.5937999)"
           inkscape:label="i" />
        <path
           d="M 0,0 C -0.161,-0.066 -0.333,-0.126 -0.515,-0.18 -0.698,-0.233 -0.92,-0.258 -1.181,-0.256 -1.569,-0.253 -1.856,-0.158 -2.045,0.031 -2.233,0.22 -2.33,0.49 -2.331,0.841 -2.335,1.606 -2.338,2.371 -2.341,3.137 -2.574,3.135 -2.806,3.134 -3.038,3.131 -3.04,3.267 -3.041,3.403 -3.043,3.539 c 0.239,0.003 0.477,0.005 0.715,0.006 -0.001,0.378 -0.003,0.756 -0.005,1.134 0.425,10e-4 0.85,0 1.274,-0.003 C -1.062,4.298 -1.065,3.92 -1.069,3.542 -0.705,3.539 -0.341,3.533 0.023,3.526 0.02,3.39 0.017,3.254 0.015,3.118 -0.345,3.125 -0.705,3.13 -1.065,3.134 -1.071,2.451 -1.077,1.768 -1.083,1.086 -1.085,0.794 -1.046,0.587 -0.966,0.464 -0.885,0.341 -0.74,0.278 -0.529,0.275 c 0.068,-0.001 0.162,0.003 0.283,0.011 0.12,0.007 0.205,0.017 0.253,0.028 C 0.004,0.21 0.002,0.105 0,0"
           style="fill:#000000;fill-opacity:1;fill-rule:nonzero;stroke:none"
           id="path182"
           transform="translate(18.0681,1.7322998)"
           inkscape:label="t" />
        <path
           d="m 0,0 c -0.594,-0.044 -1.187,-0.093 -1.779,-0.149 -0.02,0.017 -0.039,0.034 -0.058,0.051 -0.006,0.163 -0.011,0.327 -0.016,0.49 -0.008,0 -0.015,-0.001 -0.023,-0.001 C -1.958,0.311 -2.039,0.233 -2.117,0.156 -2.195,0.08 -2.289,0.01 -2.399,-0.055 -2.523,-0.127 -2.641,-0.182 -2.753,-0.219 -2.864,-0.256 -3.028,-0.279 -3.244,-0.29 -3.619,-0.308 -3.911,-0.211 -4.125,0.004 -4.339,0.22 -4.459,0.533 -4.484,0.947 -4.518,1.507 -4.553,2.068 -4.587,2.628 -4.593,2.725 -4.616,2.803 -4.659,2.861 -4.701,2.92 -4.755,2.971 -4.822,3.014 -4.876,3.049 -4.944,3.071 -5.027,3.082 -5.11,3.093 -5.185,3.098 -5.252,3.099 -5.258,3.19 -5.264,3.281 -5.271,3.372 c 0.623,0.074 1.246,0.142 1.87,0.205 0.015,-0.018 0.03,-0.036 0.045,-0.054 0.039,-0.829 0.079,-1.658 0.118,-2.486 0.012,-0.257 0.071,-0.444 0.175,-0.561 0.105,-0.118 0.243,-0.173 0.416,-0.166 0.178,0.007 0.335,0.059 0.473,0.157 0.138,0.097 0.239,0.199 0.301,0.306 -0.023,0.672 -0.045,1.344 -0.067,2.017 -0.003,0.084 -0.022,0.16 -0.057,0.226 -0.036,0.066 -0.087,0.119 -0.153,0.16 -0.047,0.028 -0.115,0.045 -0.201,0.052 -0.087,0.007 -0.176,0.011 -0.266,0.012 -0.004,0.091 -0.008,0.183 -0.011,0.274 0.627,0.057 1.256,0.108 1.885,0.153 0.02,-0.018 0.04,-0.036 0.059,-0.055 0.019,-0.963 0.038,-1.926 0.057,-2.889 0.001,-0.087 0.02,-0.161 0.056,-0.221 C -0.535,0.441 -0.483,0.39 -0.415,0.349 -0.367,0.32 -0.305,0.3 -0.229,0.291 -0.153,0.281 -0.078,0.275 -0.003,0.273 -0.002,0.182 -0.001,0.091 0,0"
           style="fill:#000000;fill-opacity:1;fill-rule:nonzero;stroke:none"
           id="path178"
           transform="translate(14.9784,1.6512)"
           inkscape:label="u" />
        <path
           d="m 0,0 c -0.783,-0.055 -1.566,-0.119 -2.347,-0.194 -0.009,0.091 -0.018,0.181 -0.026,0.272 0.064,0.011 0.127,0.023 0.188,0.036 0.06,0.014 0.114,0.031 0.16,0.053 0.077,0.037 0.128,0.085 0.152,0.144 0.024,0.058 0.032,0.133 0.023,0.225 -0.123,1.377 -0.246,2.754 -0.369,4.131 -0.008,0.094 -0.036,0.18 -0.084,0.257 -0.048,0.077 -0.108,0.134 -0.18,0.17 -0.056,0.027 -0.138,0.051 -0.247,0.071 -0.11,0.019 -0.205,0.027 -0.287,0.025 -0.009,0.09 -0.018,0.181 -0.027,0.272 0.661,0.096 1.323,0.187 1.987,0.27 0.021,-0.019 0.042,-0.037 0.064,-0.055 0.126,-1.664 0.252,-3.327 0.378,-4.99 0.007,-0.092 0.03,-0.166 0.067,-0.22 C -0.512,0.412 -0.455,0.371 -0.38,0.344 -0.328,0.326 -0.274,0.309 -0.218,0.296 -0.161,0.283 -0.095,0.275 -0.019,0.272 -0.013,0.182 -0.006,0.091 0,0"
           style="fill:#000000;fill-opacity:1;fill-rule:nonzero;stroke:none"
           id="path174"
           transform="translate(9.7610995,1.3572998)"
           inkscape:label="l" />
        <path
           d="M 0,0 C 0.039,0.145 0.06,0.318 0.063,0.52 0.067,0.721 0.053,0.953 0.023,1.216 0.003,1.39 -0.032,1.586 -0.084,1.807 -0.135,2.027 -0.193,2.198 -0.26,2.321 -0.339,2.47 -0.439,2.583 -0.559,2.659 -0.679,2.735 -0.822,2.763 -0.99,2.742 -1.172,2.719 -1.312,2.652 -1.408,2.542 -1.505,2.432 -1.573,2.295 -1.611,2.134 -1.646,1.986 -1.662,1.816 -1.657,1.625 c 0.005,-0.192 0.021,-0.391 0.048,-0.596 0.036,-0.27 0.075,-0.492 0.116,-0.666 0.041,-0.175 0.107,-0.347 0.198,-0.516 0.077,-0.146 0.175,-0.257 0.293,-0.332 0.118,-0.075 0.259,-0.103 0.423,-0.082 0.149,0.018 0.271,0.075 0.368,0.171 C -0.114,-0.3 -0.044,-0.168 0,0 M 0.685,2.686 C 0.893,2.535 1.059,2.345 1.182,2.117 1.306,1.889 1.381,1.636 1.409,1.358 1.437,1.082 1.414,0.817 1.342,0.563 1.271,0.308 1.151,0.085 0.986,-0.108 0.809,-0.315 0.59,-0.483 0.33,-0.614 0.07,-0.744 -0.234,-0.83 -0.583,-0.873 c -0.301,-0.038 -0.584,-0.03 -0.849,0.022 -0.265,0.053 -0.508,0.151 -0.729,0.297 -0.212,0.139 -0.391,0.321 -0.536,0.548 -0.146,0.227 -0.241,0.491 -0.286,0.792 -0.044,0.297 -0.034,0.567 0.03,0.813 0.064,0.245 0.181,0.471 0.353,0.68 0.165,0.2 0.38,0.367 0.647,0.499 0.266,0.133 0.573,0.221 0.918,0.264 0.361,0.045 0.685,0.035 0.971,-0.03 C 0.221,2.948 0.471,2.839 0.685,2.686"
           style="fill:#000000;fill-opacity:1;fill-rule:nonzero;stroke:none"
           id="path170"
           transform="translate(5.4081999,1.6312995)"
           inkscape:label="o" />
        <path
           d="m 0,0 c -0.319,-0.057 -0.624,-0.072 -0.916,-0.045 -0.291,0.028 -0.544,0.076 -0.757,0.146 -0.068,-0.103 -0.136,-0.205 -0.203,-0.308 -0.105,-0.021 -0.209,-0.042 -0.313,-0.063 -0.144,0.624 -0.288,1.247 -0.432,1.871 0.107,0.022 0.215,0.044 0.323,0.065 0.108,-0.164 0.238,-0.334 0.39,-0.511 0.151,-0.176 0.315,-0.329 0.492,-0.458 0.183,-0.135 0.377,-0.237 0.582,-0.305 0.206,-0.068 0.433,-0.08 0.682,-0.035 0.336,0.06 0.578,0.186 0.73,0.381 C 0.73,0.932 0.785,1.154 0.744,1.402 0.709,1.607 0.604,1.766 0.426,1.878 0.248,1.991 -0.012,2.07 -0.355,2.113 -0.578,2.142 -0.784,2.168 -0.972,2.192 -1.16,2.216 -1.337,2.242 -1.505,2.272 -1.892,2.343 -2.199,2.49 -2.427,2.714 -2.655,2.939 -2.803,3.21 -2.868,3.531 c -0.041,0.203 -0.035,0.408 0.02,0.614 0.055,0.206 0.157,0.402 0.306,0.586 0.143,0.174 0.34,0.33 0.591,0.469 0.251,0.14 0.535,0.238 0.851,0.295 0.307,0.055 0.603,0.065 0.885,0.03 C 0.067,5.489 0.292,5.443 0.459,5.387 0.526,5.474 0.593,5.561 0.661,5.648 0.775,5.666 0.888,5.684 1.002,5.702 1.106,5.107 1.211,4.512 1.315,3.918 1.205,3.9 1.095,3.883 0.984,3.865 0.877,4.045 0.754,4.227 0.617,4.411 0.479,4.595 0.341,4.744 0.203,4.858 0.052,4.98 -0.114,5.069 -0.295,5.125 -0.476,5.182 -0.678,5.19 -0.902,5.15 -1.182,5.1 -1.398,4.983 -1.547,4.8 -1.696,4.617 -1.75,4.415 -1.708,4.194 -1.668,3.985 -1.56,3.829 -1.383,3.725 -1.206,3.62 -0.947,3.548 -0.607,3.504 -0.408,3.477 -0.204,3.449 0.003,3.421 0.21,3.393 0.394,3.364 0.556,3.333 0.949,3.256 1.26,3.11 1.489,2.897 1.719,2.684 1.86,2.397 1.916,2.036 1.951,1.809 1.931,1.581 1.857,1.352 1.783,1.123 1.667,0.924 1.509,0.754 1.335,0.567 1.127,0.41 0.882,0.283 0.638,0.155 0.344,0.062 0,0"
           style="fill:#000000;fill-opacity:1;fill-rule:nonzero;stroke:none"
           id="path166"
           inkscape:label="S" />
      </g>
    </g>
  </g>
</svg>
